<?xml version="1.0" encoding="utf-8" standalone="no"?>
<!DOCTYPE svg PUBLIC "-//W3C//DTD SVG 1.1//EN"
  "http://www.w3.org/Graphics/SVG/1.1/DTD/svg11.dtd">
<svg xmlns:xlink="http://www.w3.org/1999/xlink" width="402.953158pt" height="331.750125pt" viewBox="0 0 402.953158 331.750125" xmlns="http://www.w3.org/2000/svg" version="1.1">
 <metadata>
  <rdf:RDF xmlns:dc="http://purl.org/dc/elements/1.1/" xmlns:cc="http://creativecommons.org/ns#" xmlns:rdf="http://www.w3.org/1999/02/22-rdf-syntax-ns#">
   <cc:Work>
    <dc:type rdf:resource="http://purl.org/dc/dcmitype/StillImage"/>
    <dc:date>2022-06-16T17:31:26.170606</dc:date>
    <dc:format>image/svg+xml</dc:format>
    <dc:creator>
     <cc:Agent>
      <dc:title>Matplotlib v3.5.1, https://matplotlib.org/</dc:title>
     </cc:Agent>
    </dc:creator>
   </cc:Work>
  </rdf:RDF>
 </metadata>
 <defs>
  <style type="text/css">*{stroke-linejoin: round; stroke-linecap: butt}</style>
 </defs>
 <g id="figure_1">
  <g id="patch_1">
   <path d="M 0 331.750125 
L 402.953158 331.750125 
L 402.953158 0 
L 0 0 
z
" style="fill: #ffffff"/>
  </g>
  <g id="axes_1">
   <g id="patch_2">
    <path d="M 28.942188 307.872 
L 254.491661 307.872 
L 254.491661 41.76 
L 28.942188 41.76 
z
" style="fill: #ffffff"/>
   </g>
   <g id="PolyCollection_1">
    <defs>
     <path id="m5dabaf7714" d="M 142.060165 -35.974125 
L 141.373684 -35.974125 
L 140.726823 -38.417761 
L 139.792698 -40.861398 
L 139.197345 -43.305034 
L 139.49415 -45.74867 
L 140.395756 -48.192307 
L 141.18785 -50.635943 
L 141.574176 -53.07958 
L 141.690975 -55.523216 
L 141.713746 -57.966852 
L 141.716662 -60.410489 
L 141.71691 -62.854125 
L 141.716924 -65.297761 
L 141.716924 -67.741398 
L 141.716924 -70.185034 
L 141.716924 -72.62867 
L 141.716924 -75.072307 
L 141.71691 -77.515943 
L 141.716631 -79.95958 
L 141.712832 -82.403216 
L 141.678446 -84.846852 
L 141.473184 -87.290489 
L 140.676686 -89.734125 
L 138.725537 -92.177761 
L 135.917847 -94.621398 
L 134.112939 -97.065034 
L 134.817662 -99.50867 
L 136.728691 -101.952307 
L 137.032966 -104.395943 
L 134.686985 -106.83958 
L 131.418053 -109.283216 
L 129.900472 -111.726852 
L 130.986553 -114.170489 
L 132.926995 -116.614125 
L 133.69678 -119.057761 
L 132.86271 -121.501398 
L 129.637391 -123.945034 
L 120.872989 -126.38867 
L 105.831725 -128.832307 
L 92.720357 -131.275943 
L 91.90337 -133.71958 
L 102.218705 -136.163216 
L 113.86798 -138.606852 
L 121.532461 -141.050489 
L 124.720926 -143.494125 
L 120.436494 -145.937761 
L 105.087251 -148.381398 
L 82.252543 -150.825034 
L 62.288637 -153.26867 
L 52.588168 -155.712307 
L 51.497135 -158.155943 
L 54.012597 -160.59958 
L 60.538698 -163.043216 
L 74.126212 -165.486852 
L 90.640914 -167.930489 
L 100.079539 -170.374125 
L 97.415129 -172.817761 
L 88.569136 -175.261398 
L 85.684613 -177.705034 
L 94.732555 -180.14867 
L 109.215491 -182.592307 
L 119.098487 -185.035943 
L 121.890532 -187.47958 
L 122.106851 -189.923216 
L 124.252764 -192.366852 
L 128.65472 -194.810489 
L 132.347188 -197.254125 
L 132.314381 -199.697761 
L 127.973713 -202.141398 
L 122.467654 -204.585034 
L 120.645545 -207.02867 
L 123.932892 -209.472307 
L 129.476824 -211.915943 
L 134.079424 -214.35958 
L 135.314873 -216.803216 
L 130.366553 -219.246852 
L 118.54998 -221.690489 
L 105.425614 -224.134125 
L 98.875576 -226.577761 
L 100.016234 -229.021398 
L 104.590878 -231.465034 
L 110.327366 -233.90867 
L 116.669369 -236.352307 
L 122.61103 -238.795943 
L 127.585575 -241.23958 
L 131.555047 -243.683216 
L 134.322702 -246.126852 
L 135.258882 -248.570489 
L 133.740779 -251.014125 
L 130.444509 -253.457761 
L 128.229952 -255.901398 
L 129.874925 -258.345034 
L 134.380208 -260.78867 
L 138.203008 -263.232307 
L 139.55779 -265.675943 
L 139.335396 -268.11958 
L 139.177069 -270.563216 
L 139.790953 -273.006852 
L 140.726722 -275.450489 
L 141.37368 -277.894125 
L 142.060169 -277.894125 
L 142.060169 -277.894125 
L 142.707127 -275.450489 
L 143.642896 -273.006852 
L 144.25678 -270.563216 
L 144.098453 -268.11958 
L 143.876059 -265.675943 
L 145.230841 -263.232307 
L 149.053641 -260.78867 
L 153.558923 -258.345034 
L 155.203897 -255.901398 
L 152.989339 -253.457761 
L 149.69307 -251.014125 
L 148.174967 -248.570489 
L 149.111146 -246.126852 
L 151.878801 -243.683216 
L 155.848273 -241.23958 
L 160.822819 -238.795943 
L 166.764479 -236.352307 
L 173.106483 -233.90867 
L 178.842971 -231.465034 
L 183.417615 -229.021398 
L 184.558273 -226.577761 
L 178.008235 -224.134125 
L 164.883869 -221.690489 
L 153.067296 -219.246852 
L 148.118976 -216.803216 
L 149.354425 -214.35958 
L 153.957025 -211.915943 
L 159.500957 -209.472307 
L 162.788304 -207.02867 
L 160.966195 -204.585034 
L 155.460136 -202.141398 
L 151.119468 -199.697761 
L 151.086661 -197.254125 
L 154.779129 -194.810489 
L 159.181085 -192.366852 
L 161.326997 -189.923216 
L 161.543316 -187.47958 
L 164.335361 -185.035943 
L 174.218358 -182.592307 
L 188.701294 -180.14867 
L 197.749235 -177.705034 
L 194.864712 -175.261398 
L 186.01872 -172.817761 
L 183.354309 -170.374125 
L 192.792935 -167.930489 
L 209.307637 -165.486852 
L 222.89515 -163.043216 
L 229.421252 -160.59958 
L 231.936714 -158.155943 
L 230.84568 -155.712307 
L 221.145212 -153.26867 
L 201.181306 -150.825034 
L 178.346598 -148.381398 
L 162.997354 -145.937761 
L 158.712922 -143.494125 
L 161.901388 -141.050489 
L 169.565869 -138.606852 
L 181.215144 -136.163216 
L 191.530479 -133.71958 
L 190.713492 -131.275943 
L 177.602123 -128.832307 
L 162.560859 -126.38867 
L 153.796458 -123.945034 
L 150.571138 -121.501398 
L 149.737069 -119.057761 
L 150.506854 -116.614125 
L 152.447296 -114.170489 
L 153.533377 -111.726852 
L 152.015796 -109.283216 
L 148.746864 -106.83958 
L 146.400883 -104.395943 
L 146.705158 -101.952307 
L 148.616186 -99.50867 
L 149.32091 -97.065034 
L 147.516002 -94.621398 
L 144.708311 -92.177761 
L 142.757163 -89.734125 
L 141.960664 -87.290489 
L 141.755403 -84.846852 
L 141.721017 -82.403216 
L 141.717218 -79.95958 
L 141.716939 -77.515943 
L 141.716925 -75.072307 
L 141.716924 -72.62867 
L 141.716924 -70.185034 
L 141.716924 -67.741398 
L 141.716925 -65.297761 
L 141.716939 -62.854125 
L 141.717187 -60.410489 
L 141.720102 -57.966852 
L 141.742873 -55.523216 
L 141.859672 -53.07958 
L 142.245999 -50.635943 
L 143.038093 -48.192307 
L 143.939699 -45.74867 
L 144.236504 -43.305034 
L 143.641151 -40.861398 
L 142.707026 -38.417761 
L 142.060165 -35.974125 
z
" style="stroke: #545454; stroke-width: 1.5"/>
    </defs>
    <g clip-path="url(#pc06f891171)">
     <use xlink:href="#m5dabaf7714" x="0" y="331.750125" style="fill: #597dbf; stroke: #545454; stroke-width: 1.5"/>
    </g>
   </g>
   <g id="matplotlib.axis_1">
    <g id="xtick_1">
     <g id="line2d_1">
      <defs>
       <path id="m8e9ae3649f" d="M 0 0 
L 0 3.5 
" style="stroke: #000000; stroke-width: 0.8"/>
      </defs>
      <g>
       <use xlink:href="#m8e9ae3649f" x="141.716924" y="307.872" style="stroke: #000000; stroke-width: 0.8"/>
      </g>
     </g>
     <g id="text_1">
      <!-- 0 -->
      <g transform="translate(138.535674 322.470437)scale(0.1 -0.1)">
       <defs>
        <path id="DejaVuSans-30" d="M 2034 4250 
Q 1547 4250 1301 3770 
Q 1056 3291 1056 2328 
Q 1056 1369 1301 889 
Q 1547 409 2034 409 
Q 2525 409 2770 889 
Q 3016 1369 3016 2328 
Q 3016 3291 2770 3770 
Q 2525 4250 2034 4250 
z
M 2034 4750 
Q 2819 4750 3233 4129 
Q 3647 3509 3647 2328 
Q 3647 1150 3233 529 
Q 2819 -91 2034 -91 
Q 1250 -91 836 529 
Q 422 1150 422 2328 
Q 422 3509 836 4129 
Q 1250 4750 2034 4750 
z
" transform="scale(0.015625)"/>
       </defs>
       <use xlink:href="#DejaVuSans-30"/>
      </g>
     </g>
    </g>
   </g>
   <g id="matplotlib.axis_2">
    <g id="ytick_1">
     <g id="line2d_2">
      <defs>
       <path id="ma89947764a" d="M 0 0 
L -3.5 0 
" style="stroke: #000000; stroke-width: 0.8"/>
      </defs>
      <g>
       <use xlink:href="#ma89947764a" x="28.942188" y="274.353686" style="stroke: #000000; stroke-width: 0.8"/>
      </g>
     </g>
     <g id="text_2">
      <!-- −3 -->
      <g transform="translate(7.2 278.152904)scale(0.1 -0.1)">
       <defs>
        <path id="DejaVuSans-2212" d="M 678 2272 
L 4684 2272 
L 4684 1741 
L 678 1741 
L 678 2272 
z
" transform="scale(0.015625)"/>
        <path id="DejaVuSans-33" d="M 2597 2516 
Q 3050 2419 3304 2112 
Q 3559 1806 3559 1356 
Q 3559 666 3084 287 
Q 2609 -91 1734 -91 
Q 1441 -91 1130 -33 
Q 819 25 488 141 
L 488 750 
Q 750 597 1062 519 
Q 1375 441 1716 441 
Q 2309 441 2620 675 
Q 2931 909 2931 1356 
Q 2931 1769 2642 2001 
Q 2353 2234 1838 2234 
L 1294 2234 
L 1294 2753 
L 1863 2753 
Q 2328 2753 2575 2939 
Q 2822 3125 2822 3475 
Q 2822 3834 2567 4026 
Q 2313 4219 1838 4219 
Q 1578 4219 1281 4162 
Q 984 4106 628 3988 
L 628 4550 
Q 988 4650 1302 4700 
Q 1616 4750 1894 4750 
Q 2613 4750 3031 4423 
Q 3450 4097 3450 3541 
Q 3450 3153 3228 2886 
Q 3006 2619 2597 2516 
z
" transform="scale(0.015625)"/>
       </defs>
       <use xlink:href="#DejaVuSans-2212"/>
       <use xlink:href="#DejaVuSans-33" x="83.789062"/>
      </g>
     </g>
    </g>
    <g id="ytick_2">
     <g id="line2d_3">
      <g>
       <use xlink:href="#ma89947764a" x="28.942188" y="235.571451" style="stroke: #000000; stroke-width: 0.8"/>
      </g>
     </g>
     <g id="text_3">
      <!-- −2 -->
      <g transform="translate(7.2 239.37067)scale(0.1 -0.1)">
       <defs>
        <path id="DejaVuSans-32" d="M 1228 531 
L 3431 531 
L 3431 0 
L 469 0 
L 469 531 
Q 828 903 1448 1529 
Q 2069 2156 2228 2338 
Q 2531 2678 2651 2914 
Q 2772 3150 2772 3378 
Q 2772 3750 2511 3984 
Q 2250 4219 1831 4219 
Q 1534 4219 1204 4116 
Q 875 4013 500 3803 
L 500 4441 
Q 881 4594 1212 4672 
Q 1544 4750 1819 4750 
Q 2544 4750 2975 4387 
Q 3406 4025 3406 3419 
Q 3406 3131 3298 2873 
Q 3191 2616 2906 2266 
Q 2828 2175 2409 1742 
Q 1991 1309 1228 531 
z
" transform="scale(0.015625)"/>
       </defs>
       <use xlink:href="#DejaVuSans-2212"/>
       <use xlink:href="#DejaVuSans-32" x="83.789062"/>
      </g>
     </g>
    </g>
    <g id="ytick_3">
     <g id="line2d_4">
      <g>
       <use xlink:href="#ma89947764a" x="28.942188" y="196.789216" style="stroke: #000000; stroke-width: 0.8"/>
      </g>
     </g>
     <g id="text_4">
      <!-- −1 -->
      <g transform="translate(7.2 200.588435)scale(0.1 -0.1)">
       <defs>
        <path id="DejaVuSans-31" d="M 794 531 
L 1825 531 
L 1825 4091 
L 703 3866 
L 703 4441 
L 1819 4666 
L 2450 4666 
L 2450 531 
L 3481 531 
L 3481 0 
L 794 0 
L 794 531 
z
" transform="scale(0.015625)"/>
       </defs>
       <use xlink:href="#DejaVuSans-2212"/>
       <use xlink:href="#DejaVuSans-31" x="83.789062"/>
      </g>
     </g>
    </g>
    <g id="ytick_4">
     <g id="line2d_5">
      <g>
       <use xlink:href="#ma89947764a" x="28.942188" y="158.006982" style="stroke: #000000; stroke-width: 0.8"/>
      </g>
     </g>
     <g id="text_5">
      <!-- 0 -->
      <g transform="translate(15.579688 161.8062)scale(0.1 -0.1)">
       <use xlink:href="#DejaVuSans-30"/>
      </g>
     </g>
    </g>
    <g id="ytick_5">
     <g id="line2d_6">
      <g>
       <use xlink:href="#ma89947764a" x="28.942188" y="119.224747" style="stroke: #000000; stroke-width: 0.8"/>
      </g>
     </g>
     <g id="text_6">
      <!-- 1 -->
      <g transform="translate(15.579688 123.023966)scale(0.1 -0.1)">
       <use xlink:href="#DejaVuSans-31"/>
      </g>
     </g>
    </g>
    <g id="ytick_6">
     <g id="line2d_7">
      <g>
       <use xlink:href="#ma89947764a" x="28.942188" y="80.442512" style="stroke: #000000; stroke-width: 0.8"/>
      </g>
     </g>
     <g id="text_7">
      <!-- 2 -->
      <g transform="translate(15.579688 84.241731)scale(0.1 -0.1)">
       <use xlink:href="#DejaVuSans-32"/>
      </g>
     </g>
    </g>
   </g>
   <g id="line2d_8">
    <path d="M 141.716924 234.258587 
L 141.716924 75.127934 
" clip-path="url(#pc06f891171)" style="fill: none; stroke: #545454; stroke-width: 1.5; stroke-linecap: square"/>
   </g>
   <g id="line2d_9">
    <path d="M 141.716924 178.670619 
L 141.716924 132.395593 
" clip-path="url(#pc06f891171)" style="fill: none; stroke: #545454; stroke-width: 4.5; stroke-linecap: square"/>
   </g>
   <g id="line2d_10">
    <path d="M 28.942188 222.91515 
L 254.491661 222.91515 
" clip-path="url(#pc06f891171)" style="fill: none; stroke-dasharray: 5.55,2.4; stroke-dashoffset: 0; stroke: #db5f57; stroke-width: 1.5"/>
   </g>
   <g id="line2d_11">
    <path d="M 28.942188 178.407487 
L 254.491661 178.407487 
" clip-path="url(#pc06f891171)" style="fill: none; stroke-dasharray: 5.55,2.4; stroke-dashoffset: 0; stroke: #b9db57; stroke-width: 1.5"/>
   </g>
   <g id="line2d_12">
    <path d="M 28.942188 168.638281 
L 254.491661 168.638281 
" clip-path="url(#pc06f891171)" style="fill: none; stroke-dasharray: 5.55,2.4; stroke-dashoffset: 0; stroke: #57db94; stroke-width: 1.5"/>
   </g>
   <g id="line2d_13">
    <path d="M 28.942188 134.169793 
L 254.491661 134.169793 
" clip-path="url(#pc06f891171)" style="fill: none; stroke-dasharray: 5.55,2.4; stroke-dashoffset: 0; stroke: #5784db; stroke-width: 1.5"/>
   </g>
   <g id="line2d_14">
    <path d="M 28.942188 75.127934 
L 254.491661 75.127934 
" clip-path="url(#pc06f891171)" style="fill: none; stroke-dasharray: 5.55,2.4; stroke-dashoffset: 0; stroke: #c957db; stroke-width: 1.5"/>
   </g>
   <g id="patch_3">
    <path d="M 28.942188 307.872 
L 28.942188 41.76 
" style="fill: none; stroke: #000000; stroke-width: 0.8; stroke-linejoin: miter; stroke-linecap: square"/>
   </g>
   <g id="patch_4">
    <path d="M 254.491661 307.872 
L 254.491661 41.76 
" style="fill: none; stroke: #000000; stroke-width: 0.8; stroke-linejoin: miter; stroke-linecap: square"/>
   </g>
   <g id="patch_5">
    <path d="M 28.942188 307.872 
L 254.491661 307.872 
" style="fill: none; stroke: #000000; stroke-width: 0.8; stroke-linejoin: miter; stroke-linecap: square"/>
   </g>
   <g id="patch_6">
    <path d="M 28.942188 41.76 
L 254.491661 41.76 
" style="fill: none; stroke: #000000; stroke-width: 0.8; stroke-linejoin: miter; stroke-linecap: square"/>
   </g>
   <g id="PathCollection_1">
    <defs>
     <path id="m5d473b86e6" d="M 0 1.5 
C 0.397805 1.5 0.77937 1.341951 1.06066 1.06066 
C 1.341951 0.77937 1.5 0.397805 1.5 0 
C 1.5 -0.397805 1.341951 -0.77937 1.06066 -1.06066 
C 0.77937 -1.341951 0.397805 -1.5 0 -1.5 
C -0.397805 -1.5 -0.77937 -1.341951 -1.06066 -1.06066 
C -1.341951 -0.77937 -1.5 -0.397805 -1.5 0 
C -1.5 0.397805 -1.341951 0.77937 -1.06066 1.06066 
C -0.77937 1.341951 -0.397805 1.5 0 1.5 
z
" style="stroke: #545454"/>
    </defs>
    <g clip-path="url(#pc06f891171)">
     <use xlink:href="#m5d473b86e6" x="141.716924" y="168.638281" style="fill: #ffffff; stroke: #545454"/>
    </g>
   </g>
  </g>
  <g id="axes_2">
   <g id="LineCollection_1">
    <path d="M 380.5469 289.298546 
L 374.104421 284.770046 
" clip-path="url(#p755b79492b)" style="fill: none; stroke: #000000"/>
    <path d="M 380.5469 289.298546 
L 375.441131 293.842072 
" clip-path="url(#p755b79492b)" style="fill: none; stroke: #000000"/>
    <path d="M 374.104421 284.770046 
L 360.975924 283.028289 
" clip-path="url(#p755b79492b)" style="fill: none; stroke: #000000"/>
    <path d="M 360.975924 283.028289 
L 360.140734 280.539858 
" clip-path="url(#p755b79492b)" style="fill: none; stroke: #000000"/>
    <path d="M 360.975924 283.028289 
L 346.533228 281.333742 
" clip-path="url(#p755b79492b)" style="fill: none; stroke: #000000"/>
    <path d="M 360.140734 280.539858 
L 367.848429 287.56232 
" clip-path="url(#p755b79492b)" style="fill: none; stroke: #000000"/>
    <path d="M 360.140734 280.539858 
L 348.998443 275.565308 
" clip-path="url(#p755b79492b)" style="fill: none; stroke: #000000"/>
    <path d="M 367.848429 287.56232 
L 375.441131 293.842072 
" clip-path="url(#p755b79492b)" style="fill: none; stroke: #000000"/>
    <path d="M 375.441131 293.842072 
L 376.341869 301.2544 
" clip-path="url(#p755b79492b)" style="fill: none; stroke: #000000"/>
    <path d="M 376.341869 301.2544 
L 368.6626 304.70391 
" clip-path="url(#p755b79492b)" style="fill: none; stroke: #000000"/>
    <path d="M 376.341869 301.2544 
L 381.790417 305.921032 
" clip-path="url(#p755b79492b)" style="fill: none; stroke: #000000"/>
    <path d="M 348.998443 275.565308 
L 335.090925 273.494189 
" clip-path="url(#p755b79492b)" style="fill: none; stroke: #000000"/>
    <path d="M 335.090925 273.494189 
L 322.116138 270.559808 
" clip-path="url(#p755b79492b)" style="fill: none; stroke: #000000"/>
    <path d="M 335.090925 273.494189 
L 332.933103 278.583066 
" clip-path="url(#p755b79492b)" style="fill: none; stroke: #000000"/>
    <path d="M 322.116138 270.559808 
L 309.031607 270.450501 
" clip-path="url(#p755b79492b)" style="fill: none; stroke: #000000"/>
    <path d="M 309.031607 270.450501 
L 306.742762 276.196794 
" clip-path="url(#p755b79492b)" style="fill: none; stroke: #000000"/>
    <path d="M 309.031607 270.450501 
L 300.62425 266.901677 
" clip-path="url(#p755b79492b)" style="fill: none; stroke: #000000"/>
    <path d="M 306.742762 276.196794 
L 318.849944 278.280626 
" clip-path="url(#p755b79492b)" style="fill: none; stroke: #000000"/>
    <path d="M 306.742762 276.196794 
L 296.35501 277.999337 
" clip-path="url(#p755b79492b)" style="fill: none; stroke: #000000"/>
    <path d="M 318.849944 278.280626 
L 332.933103 278.583066 
" clip-path="url(#p755b79492b)" style="fill: none; stroke: #000000"/>
    <path d="M 332.933103 278.583066 
L 346.533228 281.333742 
" clip-path="url(#p755b79492b)" style="fill: none; stroke: #000000"/>
   </g>
   <g id="PathCollection_2">
    <defs>
     <path id="C0_0_12c4466076" d="M 0 1.118034 
C 0.296506 1.118034 0.580908 1.000231 0.790569 0.790569 
C 1.000231 0.580908 1.118034 0.296506 1.118034 -0 
C 1.118034 -0.296506 1.000231 -0.580908 0.790569 -0.790569 
C 0.580908 -1.000231 0.296506 -1.118034 0 -1.118034 
C -0.296506 -1.118034 -0.580908 -1.000231 -0.790569 -0.790569 
C -1.000231 -0.580908 -1.118034 -0.296506 -1.118034 0 
C -1.118034 0.296506 -1.000231 0.580908 -0.790569 0.790569 
C -0.580908 1.000231 -0.296506 1.118034 0 1.118034 
z
"/>
    </defs>
    <g clip-path="url(#p755b79492b)">
     <use xlink:href="#C0_0_12c4466076" x="380.5469" y="289.298546" style="fill: #db5f57; stroke: #db5f57"/>
    </g>
    <g clip-path="url(#p755b79492b)">
     <use xlink:href="#C0_0_12c4466076" x="374.104421" y="284.770046" style="fill: #db5f57; stroke: #db5f57"/>
    </g>
    <g clip-path="url(#p755b79492b)">
     <use xlink:href="#C0_0_12c4466076" x="360.975924" y="283.028289" style="fill: #db5f57; stroke: #db5f57"/>
    </g>
    <g clip-path="url(#p755b79492b)">
     <use xlink:href="#C0_0_12c4466076" x="360.140734" y="280.539858" style="fill: #db5f57; stroke: #db5f57"/>
    </g>
    <g clip-path="url(#p755b79492b)">
     <use xlink:href="#C0_0_12c4466076" x="367.848429" y="287.56232" style="fill: #db5f57; stroke: #db5f57"/>
    </g>
    <g clip-path="url(#p755b79492b)">
     <use xlink:href="#C0_0_12c4466076" x="375.441131" y="293.842072" style="fill: #db5f57; stroke: #db5f57"/>
    </g>
    <g clip-path="url(#p755b79492b)">
     <use xlink:href="#C0_0_12c4466076" x="376.341869" y="301.2544" style="fill: #db5f57; stroke: #db5f57"/>
    </g>
    <g clip-path="url(#p755b79492b)">
     <use xlink:href="#C0_0_12c4466076" x="368.6626" y="304.70391" style="fill: #db5f57; stroke: #db5f57"/>
    </g>
    <g clip-path="url(#p755b79492b)">
     <use xlink:href="#C0_0_12c4466076" x="381.790417" y="305.921032" style="fill: #db5f57; stroke: #db5f57"/>
    </g>
    <g clip-path="url(#p755b79492b)">
     <use xlink:href="#C0_0_12c4466076" x="348.998443" y="275.565308" style="fill: #db5f57; stroke: #db5f57"/>
    </g>
    <g clip-path="url(#p755b79492b)">
     <use xlink:href="#C0_0_12c4466076" x="335.090925" y="273.494189" style="fill: #db5f57; stroke: #db5f57"/>
    </g>
    <g clip-path="url(#p755b79492b)">
     <use xlink:href="#C0_0_12c4466076" x="322.116138" y="270.559808" style="fill: #db5f57; stroke: #db5f57"/>
    </g>
    <g clip-path="url(#p755b79492b)">
     <use xlink:href="#C0_0_12c4466076" x="309.031607" y="270.450501" style="fill: #db5f57; stroke: #db5f57"/>
    </g>
    <g clip-path="url(#p755b79492b)">
     <use xlink:href="#C0_0_12c4466076" x="306.742762" y="276.196794" style="fill: #db5f57; stroke: #db5f57"/>
    </g>
    <g clip-path="url(#p755b79492b)">
     <use xlink:href="#C0_0_12c4466076" x="318.849944" y="278.280626" style="fill: #db5f57; stroke: #db5f57"/>
    </g>
    <g clip-path="url(#p755b79492b)">
     <use xlink:href="#C0_0_12c4466076" x="332.933103" y="278.583066" style="fill: #db5f57; stroke: #db5f57"/>
    </g>
    <g clip-path="url(#p755b79492b)">
     <use xlink:href="#C0_0_12c4466076" x="346.533228" y="281.333742" style="fill: #db5f57; stroke: #db5f57"/>
    </g>
    <g clip-path="url(#p755b79492b)">
     <use xlink:href="#C0_0_12c4466076" x="296.35501" y="277.999337" style="fill: #db5f57; stroke: #db5f57"/>
    </g>
    <g clip-path="url(#p755b79492b)">
     <use xlink:href="#C0_0_12c4466076" x="300.62425" y="266.901677" style="fill: #db5f57; stroke: #db5f57"/>
    </g>
   </g>
   <g id="text_8">
    <!-- Graph ID: 53, y-label: 1.0 -->
    <g transform="translate(286.544905 258.95071)scale(0.0833 -0.0833)">
     <defs>
      <path id="DejaVuSans-47" d="M 3809 666 
L 3809 1919 
L 2778 1919 
L 2778 2438 
L 4434 2438 
L 4434 434 
Q 4069 175 3628 42 
Q 3188 -91 2688 -91 
Q 1594 -91 976 548 
Q 359 1188 359 2328 
Q 359 3472 976 4111 
Q 1594 4750 2688 4750 
Q 3144 4750 3555 4637 
Q 3966 4525 4313 4306 
L 4313 3634 
Q 3963 3931 3569 4081 
Q 3175 4231 2741 4231 
Q 1884 4231 1454 3753 
Q 1025 3275 1025 2328 
Q 1025 1384 1454 906 
Q 1884 428 2741 428 
Q 3075 428 3337 486 
Q 3600 544 3809 666 
z
" transform="scale(0.015625)"/>
      <path id="DejaVuSans-72" d="M 2631 2963 
Q 2534 3019 2420 3045 
Q 2306 3072 2169 3072 
Q 1681 3072 1420 2755 
Q 1159 2438 1159 1844 
L 1159 0 
L 581 0 
L 581 3500 
L 1159 3500 
L 1159 2956 
Q 1341 3275 1631 3429 
Q 1922 3584 2338 3584 
Q 2397 3584 2469 3576 
Q 2541 3569 2628 3553 
L 2631 2963 
z
" transform="scale(0.015625)"/>
      <path id="DejaVuSans-61" d="M 2194 1759 
Q 1497 1759 1228 1600 
Q 959 1441 959 1056 
Q 959 750 1161 570 
Q 1363 391 1709 391 
Q 2188 391 2477 730 
Q 2766 1069 2766 1631 
L 2766 1759 
L 2194 1759 
z
M 3341 1997 
L 3341 0 
L 2766 0 
L 2766 531 
Q 2569 213 2275 61 
Q 1981 -91 1556 -91 
Q 1019 -91 701 211 
Q 384 513 384 1019 
Q 384 1609 779 1909 
Q 1175 2209 1959 2209 
L 2766 2209 
L 2766 2266 
Q 2766 2663 2505 2880 
Q 2244 3097 1772 3097 
Q 1472 3097 1187 3025 
Q 903 2953 641 2809 
L 641 3341 
Q 956 3463 1253 3523 
Q 1550 3584 1831 3584 
Q 2591 3584 2966 3190 
Q 3341 2797 3341 1997 
z
" transform="scale(0.015625)"/>
      <path id="DejaVuSans-70" d="M 1159 525 
L 1159 -1331 
L 581 -1331 
L 581 3500 
L 1159 3500 
L 1159 2969 
Q 1341 3281 1617 3432 
Q 1894 3584 2278 3584 
Q 2916 3584 3314 3078 
Q 3713 2572 3713 1747 
Q 3713 922 3314 415 
Q 2916 -91 2278 -91 
Q 1894 -91 1617 61 
Q 1341 213 1159 525 
z
M 3116 1747 
Q 3116 2381 2855 2742 
Q 2594 3103 2138 3103 
Q 1681 3103 1420 2742 
Q 1159 2381 1159 1747 
Q 1159 1113 1420 752 
Q 1681 391 2138 391 
Q 2594 391 2855 752 
Q 3116 1113 3116 1747 
z
" transform="scale(0.015625)"/>
      <path id="DejaVuSans-68" d="M 3513 2113 
L 3513 0 
L 2938 0 
L 2938 2094 
Q 2938 2591 2744 2837 
Q 2550 3084 2163 3084 
Q 1697 3084 1428 2787 
Q 1159 2491 1159 1978 
L 1159 0 
L 581 0 
L 581 4863 
L 1159 4863 
L 1159 2956 
Q 1366 3272 1645 3428 
Q 1925 3584 2291 3584 
Q 2894 3584 3203 3211 
Q 3513 2838 3513 2113 
z
" transform="scale(0.015625)"/>
      <path id="DejaVuSans-20" transform="scale(0.015625)"/>
      <path id="DejaVuSans-49" d="M 628 4666 
L 1259 4666 
L 1259 0 
L 628 0 
L 628 4666 
z
" transform="scale(0.015625)"/>
      <path id="DejaVuSans-44" d="M 1259 4147 
L 1259 519 
L 2022 519 
Q 2988 519 3436 956 
Q 3884 1394 3884 2338 
Q 3884 3275 3436 3711 
Q 2988 4147 2022 4147 
L 1259 4147 
z
M 628 4666 
L 1925 4666 
Q 3281 4666 3915 4102 
Q 4550 3538 4550 2338 
Q 4550 1131 3912 565 
Q 3275 0 1925 0 
L 628 0 
L 628 4666 
z
" transform="scale(0.015625)"/>
      <path id="DejaVuSans-3a" d="M 750 794 
L 1409 794 
L 1409 0 
L 750 0 
L 750 794 
z
M 750 3309 
L 1409 3309 
L 1409 2516 
L 750 2516 
L 750 3309 
z
" transform="scale(0.015625)"/>
      <path id="DejaVuSans-35" d="M 691 4666 
L 3169 4666 
L 3169 4134 
L 1269 4134 
L 1269 2991 
Q 1406 3038 1543 3061 
Q 1681 3084 1819 3084 
Q 2600 3084 3056 2656 
Q 3513 2228 3513 1497 
Q 3513 744 3044 326 
Q 2575 -91 1722 -91 
Q 1428 -91 1123 -41 
Q 819 9 494 109 
L 494 744 
Q 775 591 1075 516 
Q 1375 441 1709 441 
Q 2250 441 2565 725 
Q 2881 1009 2881 1497 
Q 2881 1984 2565 2268 
Q 2250 2553 1709 2553 
Q 1456 2553 1204 2497 
Q 953 2441 691 2322 
L 691 4666 
z
" transform="scale(0.015625)"/>
      <path id="DejaVuSans-2c" d="M 750 794 
L 1409 794 
L 1409 256 
L 897 -744 
L 494 -744 
L 750 256 
L 750 794 
z
" transform="scale(0.015625)"/>
      <path id="DejaVuSans-79" d="M 2059 -325 
Q 1816 -950 1584 -1140 
Q 1353 -1331 966 -1331 
L 506 -1331 
L 506 -850 
L 844 -850 
Q 1081 -850 1212 -737 
Q 1344 -625 1503 -206 
L 1606 56 
L 191 3500 
L 800 3500 
L 1894 763 
L 2988 3500 
L 3597 3500 
L 2059 -325 
z
" transform="scale(0.015625)"/>
      <path id="DejaVuSans-2d" d="M 313 2009 
L 1997 2009 
L 1997 1497 
L 313 1497 
L 313 2009 
z
" transform="scale(0.015625)"/>
      <path id="DejaVuSans-6c" d="M 603 4863 
L 1178 4863 
L 1178 0 
L 603 0 
L 603 4863 
z
" transform="scale(0.015625)"/>
      <path id="DejaVuSans-62" d="M 3116 1747 
Q 3116 2381 2855 2742 
Q 2594 3103 2138 3103 
Q 1681 3103 1420 2742 
Q 1159 2381 1159 1747 
Q 1159 1113 1420 752 
Q 1681 391 2138 391 
Q 2594 391 2855 752 
Q 3116 1113 3116 1747 
z
M 1159 2969 
Q 1341 3281 1617 3432 
Q 1894 3584 2278 3584 
Q 2916 3584 3314 3078 
Q 3713 2572 3713 1747 
Q 3713 922 3314 415 
Q 2916 -91 2278 -91 
Q 1894 -91 1617 61 
Q 1341 213 1159 525 
L 1159 0 
L 581 0 
L 581 4863 
L 1159 4863 
L 1159 2969 
z
" transform="scale(0.015625)"/>
      <path id="DejaVuSans-65" d="M 3597 1894 
L 3597 1613 
L 953 1613 
Q 991 1019 1311 708 
Q 1631 397 2203 397 
Q 2534 397 2845 478 
Q 3156 559 3463 722 
L 3463 178 
Q 3153 47 2828 -22 
Q 2503 -91 2169 -91 
Q 1331 -91 842 396 
Q 353 884 353 1716 
Q 353 2575 817 3079 
Q 1281 3584 2069 3584 
Q 2775 3584 3186 3129 
Q 3597 2675 3597 1894 
z
M 3022 2063 
Q 3016 2534 2758 2815 
Q 2500 3097 2075 3097 
Q 1594 3097 1305 2825 
Q 1016 2553 972 2059 
L 3022 2063 
z
" transform="scale(0.015625)"/>
      <path id="DejaVuSans-2e" d="M 684 794 
L 1344 794 
L 1344 0 
L 684 0 
L 684 794 
z
" transform="scale(0.015625)"/>
     </defs>
     <use xlink:href="#DejaVuSans-47"/>
     <use xlink:href="#DejaVuSans-72" x="77.490234"/>
     <use xlink:href="#DejaVuSans-61" x="118.603516"/>
     <use xlink:href="#DejaVuSans-70" x="179.882812"/>
     <use xlink:href="#DejaVuSans-68" x="243.359375"/>
     <use xlink:href="#DejaVuSans-20" x="306.738281"/>
     <use xlink:href="#DejaVuSans-49" x="338.525391"/>
     <use xlink:href="#DejaVuSans-44" x="368.017578"/>
     <use xlink:href="#DejaVuSans-3a" x="445.019531"/>
     <use xlink:href="#DejaVuSans-20" x="478.710938"/>
     <use xlink:href="#DejaVuSans-35" x="510.498047"/>
     <use xlink:href="#DejaVuSans-33" x="574.121094"/>
     <use xlink:href="#DejaVuSans-2c" x="637.744141"/>
     <use xlink:href="#DejaVuSans-20" x="669.53125"/>
     <use xlink:href="#DejaVuSans-79" x="701.318359"/>
     <use xlink:href="#DejaVuSans-2d" x="758.748047"/>
     <use xlink:href="#DejaVuSans-6c" x="794.832031"/>
     <use xlink:href="#DejaVuSans-61" x="822.615234"/>
     <use xlink:href="#DejaVuSans-62" x="883.894531"/>
     <use xlink:href="#DejaVuSans-65" x="947.371094"/>
     <use xlink:href="#DejaVuSans-6c" x="1008.894531"/>
     <use xlink:href="#DejaVuSans-3a" x="1036.677734"/>
     <use xlink:href="#DejaVuSans-20" x="1070.369141"/>
     <use xlink:href="#DejaVuSans-31" x="1102.15625"/>
     <use xlink:href="#DejaVuSans-2e" x="1165.779297"/>
     <use xlink:href="#DejaVuSans-30" x="1197.566406"/>
    </g>
   </g>
  </g>
  <g id="axes_3">
   <g id="LineCollection_2">
    <path d="M 343.112464 219.52844 
L 338.340946 230.805865 
" clip-path="url(#p19d69807e4)" style="fill: none; stroke: #000000"/>
    <path d="M 343.112464 219.52844 
L 337.476594 212.386816 
" clip-path="url(#p19d69807e4)" style="fill: none; stroke: #000000"/>
    <path d="M 338.340946 230.805865 
L 333.250199 241.531566 
" clip-path="url(#p19d69807e4)" style="fill: none; stroke: #000000"/>
    <path d="M 333.250199 241.531566 
L 331.567341 233.676488 
" clip-path="url(#p19d69807e4)" style="fill: none; stroke: #000000"/>
    <path d="M 331.567341 233.676488 
L 328.773996 219.71106 
" clip-path="url(#p19d69807e4)" style="fill: none; stroke: #000000"/>
    <path d="M 331.567341 233.676488 
L 337.930786 238.839908 
" clip-path="url(#p19d69807e4)" style="fill: none; stroke: #000000"/>
    <path d="M 328.773996 219.71106 
L 337.476594 212.386816 
" clip-path="url(#p19d69807e4)" style="fill: none; stroke: #000000"/>
    <path d="M 328.773996 219.71106 
L 317.184824 217.845935 
" clip-path="url(#p19d69807e4)" style="fill: none; stroke: #000000"/>
    <path d="M 317.184824 217.845935 
L 305.833583 211.104 
" clip-path="url(#p19d69807e4)" style="fill: none; stroke: #000000"/>
    <path d="M 317.184824 217.845935 
L 322.656034 229.82993 
" clip-path="url(#p19d69807e4)" style="fill: none; stroke: #000000"/>
    <path d="M 305.833583 211.104 
L 296.35501 213.654782 
" clip-path="url(#p19d69807e4)" style="fill: none; stroke: #000000"/>
    <path d="M 296.35501 213.654782 
L 299.833386 223.682065 
" clip-path="url(#p19d69807e4)" style="fill: none; stroke: #000000"/>
    <path d="M 299.833386 223.682065 
L 311.741189 231.324091 
" clip-path="url(#p19d69807e4)" style="fill: none; stroke: #000000"/>
    <path d="M 311.741189 231.324091 
L 322.656034 229.82993 
" clip-path="url(#p19d69807e4)" style="fill: none; stroke: #000000"/>
    <path d="M 311.741189 231.324091 
L 324.179288 238.361419 
" clip-path="url(#p19d69807e4)" style="fill: none; stroke: #000000"/>
    <path d="M 322.656034 229.82993 
L 337.930786 238.839908 
" clip-path="url(#p19d69807e4)" style="fill: none; stroke: #000000"/>
    <path d="M 337.930786 238.839908 
L 353.641502 241.688846 
" clip-path="url(#p19d69807e4)" style="fill: none; stroke: #000000"/>
    <path d="M 353.641502 241.688846 
L 341.431625 237.953059 
" clip-path="url(#p19d69807e4)" style="fill: none; stroke: #000000"/>
    <path d="M 353.641502 241.688846 
L 370.81449 243.777786 
" clip-path="url(#p19d69807e4)" style="fill: none; stroke: #000000"/>
    <path d="M 341.431625 237.953059 
L 324.179288 238.361419 
" clip-path="url(#p19d69807e4)" style="fill: none; stroke: #000000"/>
    <path d="M 370.81449 243.777786 
L 380.00545 250.123355 
" clip-path="url(#p19d69807e4)" style="fill: none; stroke: #000000"/>
    <path d="M 370.81449 243.777786 
L 381.790417 240.70874 
" clip-path="url(#p19d69807e4)" style="fill: none; stroke: #000000"/>
   </g>
   <g id="PathCollection_3">
    <defs>
     <path id="C1_0_59568343c2" d="M 0 1.118034 
C 0.296506 1.118034 0.580908 1.000231 0.790569 0.790569 
C 1.000231 0.580908 1.118034 0.296506 1.118034 -0 
C 1.118034 -0.296506 1.000231 -0.580908 0.790569 -0.790569 
C 0.580908 -1.000231 0.296506 -1.118034 0 -1.118034 
C -0.296506 -1.118034 -0.580908 -1.000231 -0.790569 -0.790569 
C -1.000231 -0.580908 -1.118034 -0.296506 -1.118034 0 
C -1.118034 0.296506 -1.000231 0.580908 -0.790569 0.790569 
C -0.580908 1.000231 -0.296506 1.118034 0 1.118034 
z
"/>
    </defs>
    <g clip-path="url(#p19d69807e4)">
     <use xlink:href="#C1_0_59568343c2" x="343.112464" y="219.52844" style="fill: #b9db57; stroke: #b9db57"/>
    </g>
    <g clip-path="url(#p19d69807e4)">
     <use xlink:href="#C1_0_59568343c2" x="338.340946" y="230.805865" style="fill: #b9db57; stroke: #b9db57"/>
    </g>
    <g clip-path="url(#p19d69807e4)">
     <use xlink:href="#C1_0_59568343c2" x="333.250199" y="241.531566" style="fill: #b9db57; stroke: #b9db57"/>
    </g>
    <g clip-path="url(#p19d69807e4)">
     <use xlink:href="#C1_0_59568343c2" x="331.567341" y="233.676488" style="fill: #b9db57; stroke: #b9db57"/>
    </g>
    <g clip-path="url(#p19d69807e4)">
     <use xlink:href="#C1_0_59568343c2" x="328.773996" y="219.71106" style="fill: #b9db57; stroke: #b9db57"/>
    </g>
    <g clip-path="url(#p19d69807e4)">
     <use xlink:href="#C1_0_59568343c2" x="337.476594" y="212.386816" style="fill: #b9db57; stroke: #b9db57"/>
    </g>
    <g clip-path="url(#p19d69807e4)">
     <use xlink:href="#C1_0_59568343c2" x="317.184824" y="217.845935" style="fill: #b9db57; stroke: #b9db57"/>
    </g>
    <g clip-path="url(#p19d69807e4)">
     <use xlink:href="#C1_0_59568343c2" x="305.833583" y="211.104" style="fill: #b9db57; stroke: #b9db57"/>
    </g>
    <g clip-path="url(#p19d69807e4)">
     <use xlink:href="#C1_0_59568343c2" x="296.35501" y="213.654782" style="fill: #b9db57; stroke: #b9db57"/>
    </g>
    <g clip-path="url(#p19d69807e4)">
     <use xlink:href="#C1_0_59568343c2" x="299.833386" y="223.682065" style="fill: #b9db57; stroke: #b9db57"/>
    </g>
    <g clip-path="url(#p19d69807e4)">
     <use xlink:href="#C1_0_59568343c2" x="311.741189" y="231.324091" style="fill: #b9db57; stroke: #b9db57"/>
    </g>
    <g clip-path="url(#p19d69807e4)">
     <use xlink:href="#C1_0_59568343c2" x="322.656034" y="229.82993" style="fill: #b9db57; stroke: #b9db57"/>
    </g>
    <g clip-path="url(#p19d69807e4)">
     <use xlink:href="#C1_0_59568343c2" x="337.930786" y="238.839908" style="fill: #b9db57; stroke: #b9db57"/>
    </g>
    <g clip-path="url(#p19d69807e4)">
     <use xlink:href="#C1_0_59568343c2" x="353.641502" y="241.688846" style="fill: #b9db57; stroke: #b9db57"/>
    </g>
    <g clip-path="url(#p19d69807e4)">
     <use xlink:href="#C1_0_59568343c2" x="341.431625" y="237.953059" style="fill: #b9db57; stroke: #b9db57"/>
    </g>
    <g clip-path="url(#p19d69807e4)">
     <use xlink:href="#C1_0_59568343c2" x="324.179288" y="238.361419" style="fill: #b9db57; stroke: #b9db57"/>
    </g>
    <g clip-path="url(#p19d69807e4)">
     <use xlink:href="#C1_0_59568343c2" x="370.81449" y="243.777786" style="fill: #b9db57; stroke: #b9db57"/>
    </g>
    <g clip-path="url(#p19d69807e4)">
     <use xlink:href="#C1_0_59568343c2" x="380.00545" y="250.123355" style="fill: #b9db57; stroke: #b9db57"/>
    </g>
    <g clip-path="url(#p19d69807e4)">
     <use xlink:href="#C1_0_59568343c2" x="381.790417" y="240.70874" style="fill: #b9db57; stroke: #b9db57"/>
    </g>
   </g>
   <g id="text_9">
    <!-- Graph ID: 3, y-label: 1.0 -->
    <g transform="translate(289.194886 203.153032)scale(0.0833 -0.0833)">
     <use xlink:href="#DejaVuSans-47"/>
     <use xlink:href="#DejaVuSans-72" x="77.490234"/>
     <use xlink:href="#DejaVuSans-61" x="118.603516"/>
     <use xlink:href="#DejaVuSans-70" x="179.882812"/>
     <use xlink:href="#DejaVuSans-68" x="243.359375"/>
     <use xlink:href="#DejaVuSans-20" x="306.738281"/>
     <use xlink:href="#DejaVuSans-49" x="338.525391"/>
     <use xlink:href="#DejaVuSans-44" x="368.017578"/>
     <use xlink:href="#DejaVuSans-3a" x="445.019531"/>
     <use xlink:href="#DejaVuSans-20" x="478.710938"/>
     <use xlink:href="#DejaVuSans-33" x="510.498047"/>
     <use xlink:href="#DejaVuSans-2c" x="574.121094"/>
     <use xlink:href="#DejaVuSans-20" x="605.908203"/>
     <use xlink:href="#DejaVuSans-79" x="637.695312"/>
     <use xlink:href="#DejaVuSans-2d" x="695.125"/>
     <use xlink:href="#DejaVuSans-6c" x="731.208984"/>
     <use xlink:href="#DejaVuSans-61" x="758.992188"/>
     <use xlink:href="#DejaVuSans-62" x="820.271484"/>
     <use xlink:href="#DejaVuSans-65" x="883.748047"/>
     <use xlink:href="#DejaVuSans-6c" x="945.271484"/>
     <use xlink:href="#DejaVuSans-3a" x="973.054688"/>
     <use xlink:href="#DejaVuSans-20" x="1006.746094"/>
     <use xlink:href="#DejaVuSans-31" x="1038.533203"/>
     <use xlink:href="#DejaVuSans-2e" x="1102.15625"/>
     <use xlink:href="#DejaVuSans-30" x="1133.943359"/>
    </g>
   </g>
  </g>
  <g id="axes_4">
   <g id="LineCollection_3">
    <path d="M 296.35501 194.325677 
L 304.909526 185.387935 
" clip-path="url(#p91c59d62e0)" style="fill: none; stroke: #000000"/>
    <path d="M 304.909526 185.387935 
L 320.292327 179.340347 
" clip-path="url(#p91c59d62e0)" style="fill: none; stroke: #000000"/>
    <path d="M 304.909526 185.387935 
L 296.838377 177.318435 
" clip-path="url(#p91c59d62e0)" style="fill: none; stroke: #000000"/>
    <path d="M 320.292327 179.340347 
L 337.279669 173.76856 
" clip-path="url(#p91c59d62e0)" style="fill: none; stroke: #000000"/>
    <path d="M 320.292327 179.340347 
L 316.530455 170.732006 
" clip-path="url(#p91c59d62e0)" style="fill: none; stroke: #000000"/>
    <path d="M 337.279669 173.76856 
L 353.702612 169.18227 
" clip-path="url(#p91c59d62e0)" style="fill: none; stroke: #000000"/>
    <path d="M 353.702612 169.18227 
L 344.263466 172.79246 
" clip-path="url(#p91c59d62e0)" style="fill: none; stroke: #000000"/>
    <path d="M 353.702612 169.18227 
L 369.971144 163.882932 
" clip-path="url(#p91c59d62e0)" style="fill: none; stroke: #000000"/>
    <path d="M 344.263466 172.79246 
L 330.101468 171.67595 
" clip-path="url(#p91c59d62e0)" style="fill: none; stroke: #000000"/>
    <path d="M 330.101468 171.67595 
L 316.530455 170.732006 
" clip-path="url(#p91c59d62e0)" style="fill: none; stroke: #000000"/>
    <path d="M 316.530455 170.732006 
L 303.450303 169.427195 
" clip-path="url(#p91c59d62e0)" style="fill: none; stroke: #000000"/>
    <path d="M 303.450303 169.427195 
L 296.838377 177.318435 
" clip-path="url(#p91c59d62e0)" style="fill: none; stroke: #000000"/>
    <path d="M 369.971144 163.882932 
L 381.790417 166.304142 
" clip-path="url(#p91c59d62e0)" style="fill: none; stroke: #000000"/>
    <path d="M 369.971144 163.882932 
L 377.921314 155.306323 
" clip-path="url(#p91c59d62e0)" style="fill: none; stroke: #000000"/>
   </g>
   <g id="PathCollection_4">
    <defs>
     <path id="C2_0_6ddfedb0e3" d="M 0 1.118034 
C 0.296506 1.118034 0.580908 1.000231 0.790569 0.790569 
C 1.000231 0.580908 1.118034 0.296506 1.118034 -0 
C 1.118034 -0.296506 1.000231 -0.580908 0.790569 -0.790569 
C 0.580908 -1.000231 0.296506 -1.118034 0 -1.118034 
C -0.296506 -1.118034 -0.580908 -1.000231 -0.790569 -0.790569 
C -1.000231 -0.580908 -1.118034 -0.296506 -1.118034 0 
C -1.118034 0.296506 -1.000231 0.580908 -0.790569 0.790569 
C -0.580908 1.000231 -0.296506 1.118034 0 1.118034 
z
"/>
    </defs>
    <g clip-path="url(#p91c59d62e0)">
     <use xlink:href="#C2_0_6ddfedb0e3" x="296.35501" y="194.325677" style="fill: #57db94; stroke: #57db94"/>
    </g>
    <g clip-path="url(#p91c59d62e0)">
     <use xlink:href="#C2_0_6ddfedb0e3" x="304.909526" y="185.387935" style="fill: #57db94; stroke: #57db94"/>
    </g>
    <g clip-path="url(#p91c59d62e0)">
     <use xlink:href="#C2_0_6ddfedb0e3" x="320.292327" y="179.340347" style="fill: #57db94; stroke: #57db94"/>
    </g>
    <g clip-path="url(#p91c59d62e0)">
     <use xlink:href="#C2_0_6ddfedb0e3" x="337.279669" y="173.76856" style="fill: #57db94; stroke: #57db94"/>
    </g>
    <g clip-path="url(#p91c59d62e0)">
     <use xlink:href="#C2_0_6ddfedb0e3" x="353.702612" y="169.18227" style="fill: #57db94; stroke: #57db94"/>
    </g>
    <g clip-path="url(#p91c59d62e0)">
     <use xlink:href="#C2_0_6ddfedb0e3" x="344.263466" y="172.79246" style="fill: #57db94; stroke: #57db94"/>
    </g>
    <g clip-path="url(#p91c59d62e0)">
     <use xlink:href="#C2_0_6ddfedb0e3" x="330.101468" y="171.67595" style="fill: #57db94; stroke: #57db94"/>
    </g>
    <g clip-path="url(#p91c59d62e0)">
     <use xlink:href="#C2_0_6ddfedb0e3" x="316.530455" y="170.732006" style="fill: #57db94; stroke: #57db94"/>
    </g>
    <g clip-path="url(#p91c59d62e0)">
     <use xlink:href="#C2_0_6ddfedb0e3" x="303.450303" y="169.427195" style="fill: #57db94; stroke: #57db94"/>
    </g>
    <g clip-path="url(#p91c59d62e0)">
     <use xlink:href="#C2_0_6ddfedb0e3" x="296.838377" y="177.318435" style="fill: #57db94; stroke: #57db94"/>
    </g>
    <g clip-path="url(#p91c59d62e0)">
     <use xlink:href="#C2_0_6ddfedb0e3" x="369.971144" y="163.882932" style="fill: #57db94; stroke: #57db94"/>
    </g>
    <g clip-path="url(#p91c59d62e0)">
     <use xlink:href="#C2_0_6ddfedb0e3" x="381.790417" y="166.304142" style="fill: #57db94; stroke: #57db94"/>
    </g>
    <g clip-path="url(#p91c59d62e0)">
     <use xlink:href="#C2_0_6ddfedb0e3" x="377.921314" y="155.306323" style="fill: #57db94; stroke: #57db94"/>
    </g>
   </g>
   <g id="text_10">
    <!-- Graph ID: 13, y-label: -1.0 -->
    <g transform="translate(285.042251 147.355355)scale(0.0833 -0.0833)">
     <use xlink:href="#DejaVuSans-47"/>
     <use xlink:href="#DejaVuSans-72" x="77.490234"/>
     <use xlink:href="#DejaVuSans-61" x="118.603516"/>
     <use xlink:href="#DejaVuSans-70" x="179.882812"/>
     <use xlink:href="#DejaVuSans-68" x="243.359375"/>
     <use xlink:href="#DejaVuSans-20" x="306.738281"/>
     <use xlink:href="#DejaVuSans-49" x="338.525391"/>
     <use xlink:href="#DejaVuSans-44" x="368.017578"/>
     <use xlink:href="#DejaVuSans-3a" x="445.019531"/>
     <use xlink:href="#DejaVuSans-20" x="478.710938"/>
     <use xlink:href="#DejaVuSans-31" x="510.498047"/>
     <use xlink:href="#DejaVuSans-33" x="574.121094"/>
     <use xlink:href="#DejaVuSans-2c" x="637.744141"/>
     <use xlink:href="#DejaVuSans-20" x="669.53125"/>
     <use xlink:href="#DejaVuSans-79" x="701.318359"/>
     <use xlink:href="#DejaVuSans-2d" x="758.748047"/>
     <use xlink:href="#DejaVuSans-6c" x="794.832031"/>
     <use xlink:href="#DejaVuSans-61" x="822.615234"/>
     <use xlink:href="#DejaVuSans-62" x="883.894531"/>
     <use xlink:href="#DejaVuSans-65" x="947.371094"/>
     <use xlink:href="#DejaVuSans-6c" x="1008.894531"/>
     <use xlink:href="#DejaVuSans-3a" x="1036.677734"/>
     <use xlink:href="#DejaVuSans-20" x="1070.369141"/>
     <use xlink:href="#DejaVuSans-2d" x="1102.15625"/>
     <use xlink:href="#DejaVuSans-31" x="1138.240234"/>
     <use xlink:href="#DejaVuSans-2e" x="1201.863281"/>
     <use xlink:href="#DejaVuSans-30" x="1233.650391"/>
    </g>
   </g>
  </g>
  <g id="axes_5">
   <g id="LineCollection_4">
    <path d="M 367.85698 120.527628 
L 358.871365 115.060374 
" clip-path="url(#p8109ec6a50)" style="fill: none; stroke: #000000"/>
    <path d="M 367.85698 120.527628 
L 364.332033 127.004546 
" clip-path="url(#p8109ec6a50)" style="fill: none; stroke: #000000"/>
    <path d="M 358.871365 115.060374 
L 342.253091 112.760129 
" clip-path="url(#p8109ec6a50)" style="fill: none; stroke: #000000"/>
    <path d="M 342.253091 112.760129 
L 331.66616 119.94985 
" clip-path="url(#p8109ec6a50)" style="fill: none; stroke: #000000"/>
    <path d="M 342.253091 112.760129 
L 340.705536 105.306451 
" clip-path="url(#p8109ec6a50)" style="fill: none; stroke: #000000"/>
    <path d="M 331.66616 119.94985 
L 347.326111 124.028757 
" clip-path="url(#p8109ec6a50)" style="fill: none; stroke: #000000"/>
    <path d="M 331.66616 119.94985 
L 312.038305 124.066157 
" clip-path="url(#p8109ec6a50)" style="fill: none; stroke: #000000"/>
    <path d="M 347.326111 124.028757 
L 364.332033 127.004546 
" clip-path="url(#p8109ec6a50)" style="fill: none; stroke: #000000"/>
    <path d="M 364.332033 127.004546 
L 370.581969 134.240732 
" clip-path="url(#p8109ec6a50)" style="fill: none; stroke: #000000"/>
    <path d="M 370.581969 134.240732 
L 358.763975 137.399702 
" clip-path="url(#p8109ec6a50)" style="fill: none; stroke: #000000"/>
    <path d="M 370.581969 134.240732 
L 381.790417 138.528 
" clip-path="url(#p8109ec6a50)" style="fill: none; stroke: #000000"/>
    <path d="M 312.038305 124.066157 
L 305.167658 129.43285 
" clip-path="url(#p8109ec6a50)" style="fill: none; stroke: #000000"/>
    <path d="M 312.038305 124.066157 
L 296.35501 124.297915 
" clip-path="url(#p8109ec6a50)" style="fill: none; stroke: #000000"/>
    <path d="M 340.705536 105.306451 
L 339.756682 99.508645 
" clip-path="url(#p8109ec6a50)" style="fill: none; stroke: #000000"/>
   </g>
   <g id="PathCollection_5">
    <defs>
     <path id="C3_0_1608300b06" d="M 0 1.118034 
C 0.296506 1.118034 0.580908 1.000231 0.790569 0.790569 
C 1.000231 0.580908 1.118034 0.296506 1.118034 -0 
C 1.118034 -0.296506 1.000231 -0.580908 0.790569 -0.790569 
C 0.580908 -1.000231 0.296506 -1.118034 0 -1.118034 
C -0.296506 -1.118034 -0.580908 -1.000231 -0.790569 -0.790569 
C -1.000231 -0.580908 -1.118034 -0.296506 -1.118034 0 
C -1.118034 0.296506 -1.000231 0.580908 -0.790569 0.790569 
C -0.580908 1.000231 -0.296506 1.118034 0 1.118034 
z
"/>
    </defs>
    <g clip-path="url(#p8109ec6a50)">
     <use xlink:href="#C3_0_1608300b06" x="367.85698" y="120.527628" style="fill: #5784db; stroke: #5784db"/>
    </g>
    <g clip-path="url(#p8109ec6a50)">
     <use xlink:href="#C3_0_1608300b06" x="358.871365" y="115.060374" style="fill: #5784db; stroke: #5784db"/>
    </g>
    <g clip-path="url(#p8109ec6a50)">
     <use xlink:href="#C3_0_1608300b06" x="342.253091" y="112.760129" style="fill: #5784db; stroke: #5784db"/>
    </g>
    <g clip-path="url(#p8109ec6a50)">
     <use xlink:href="#C3_0_1608300b06" x="331.66616" y="119.94985" style="fill: #5784db; stroke: #5784db"/>
    </g>
    <g clip-path="url(#p8109ec6a50)">
     <use xlink:href="#C3_0_1608300b06" x="347.326111" y="124.028757" style="fill: #5784db; stroke: #5784db"/>
    </g>
    <g clip-path="url(#p8109ec6a50)">
     <use xlink:href="#C3_0_1608300b06" x="364.332033" y="127.004546" style="fill: #5784db; stroke: #5784db"/>
    </g>
    <g clip-path="url(#p8109ec6a50)">
     <use xlink:href="#C3_0_1608300b06" x="370.581969" y="134.240732" style="fill: #5784db; stroke: #5784db"/>
    </g>
    <g clip-path="url(#p8109ec6a50)">
     <use xlink:href="#C3_0_1608300b06" x="358.763975" y="137.399702" style="fill: #5784db; stroke: #5784db"/>
    </g>
    <g clip-path="url(#p8109ec6a50)">
     <use xlink:href="#C3_0_1608300b06" x="381.790417" y="138.528" style="fill: #5784db; stroke: #5784db"/>
    </g>
    <g clip-path="url(#p8109ec6a50)">
     <use xlink:href="#C3_0_1608300b06" x="312.038305" y="124.066157" style="fill: #5784db; stroke: #5784db"/>
    </g>
    <g clip-path="url(#p8109ec6a50)">
     <use xlink:href="#C3_0_1608300b06" x="305.167658" y="129.43285" style="fill: #5784db; stroke: #5784db"/>
    </g>
    <g clip-path="url(#p8109ec6a50)">
     <use xlink:href="#C3_0_1608300b06" x="296.35501" y="124.297915" style="fill: #5784db; stroke: #5784db"/>
    </g>
    <g clip-path="url(#p8109ec6a50)">
     <use xlink:href="#C3_0_1608300b06" x="340.705536" y="105.306451" style="fill: #5784db; stroke: #5784db"/>
    </g>
    <g clip-path="url(#p8109ec6a50)">
     <use xlink:href="#C3_0_1608300b06" x="339.756682" y="99.508645" style="fill: #5784db; stroke: #5784db"/>
    </g>
   </g>
   <g id="text_11">
    <!-- Graph ID: 128, y-label: -1.0 -->
    <g transform="translate(282.39227 91.557677)scale(0.0833 -0.0833)">
     <defs>
      <path id="DejaVuSans-38" d="M 2034 2216 
Q 1584 2216 1326 1975 
Q 1069 1734 1069 1313 
Q 1069 891 1326 650 
Q 1584 409 2034 409 
Q 2484 409 2743 651 
Q 3003 894 3003 1313 
Q 3003 1734 2745 1975 
Q 2488 2216 2034 2216 
z
M 1403 2484 
Q 997 2584 770 2862 
Q 544 3141 544 3541 
Q 544 4100 942 4425 
Q 1341 4750 2034 4750 
Q 2731 4750 3128 4425 
Q 3525 4100 3525 3541 
Q 3525 3141 3298 2862 
Q 3072 2584 2669 2484 
Q 3125 2378 3379 2068 
Q 3634 1759 3634 1313 
Q 3634 634 3220 271 
Q 2806 -91 2034 -91 
Q 1263 -91 848 271 
Q 434 634 434 1313 
Q 434 1759 690 2068 
Q 947 2378 1403 2484 
z
M 1172 3481 
Q 1172 3119 1398 2916 
Q 1625 2713 2034 2713 
Q 2441 2713 2670 2916 
Q 2900 3119 2900 3481 
Q 2900 3844 2670 4047 
Q 2441 4250 2034 4250 
Q 1625 4250 1398 4047 
Q 1172 3844 1172 3481 
z
" transform="scale(0.015625)"/>
     </defs>
     <use xlink:href="#DejaVuSans-47"/>
     <use xlink:href="#DejaVuSans-72" x="77.490234"/>
     <use xlink:href="#DejaVuSans-61" x="118.603516"/>
     <use xlink:href="#DejaVuSans-70" x="179.882812"/>
     <use xlink:href="#DejaVuSans-68" x="243.359375"/>
     <use xlink:href="#DejaVuSans-20" x="306.738281"/>
     <use xlink:href="#DejaVuSans-49" x="338.525391"/>
     <use xlink:href="#DejaVuSans-44" x="368.017578"/>
     <use xlink:href="#DejaVuSans-3a" x="445.019531"/>
     <use xlink:href="#DejaVuSans-20" x="478.710938"/>
     <use xlink:href="#DejaVuSans-31" x="510.498047"/>
     <use xlink:href="#DejaVuSans-32" x="574.121094"/>
     <use xlink:href="#DejaVuSans-38" x="637.744141"/>
     <use xlink:href="#DejaVuSans-2c" x="701.367188"/>
     <use xlink:href="#DejaVuSans-20" x="733.154297"/>
     <use xlink:href="#DejaVuSans-79" x="764.941406"/>
     <use xlink:href="#DejaVuSans-2d" x="822.371094"/>
     <use xlink:href="#DejaVuSans-6c" x="858.455078"/>
     <use xlink:href="#DejaVuSans-61" x="886.238281"/>
     <use xlink:href="#DejaVuSans-62" x="947.517578"/>
     <use xlink:href="#DejaVuSans-65" x="1010.994141"/>
     <use xlink:href="#DejaVuSans-6c" x="1072.517578"/>
     <use xlink:href="#DejaVuSans-3a" x="1100.300781"/>
     <use xlink:href="#DejaVuSans-20" x="1133.992188"/>
     <use xlink:href="#DejaVuSans-2d" x="1165.779297"/>
     <use xlink:href="#DejaVuSans-31" x="1201.863281"/>
     <use xlink:href="#DejaVuSans-2e" x="1265.486328"/>
     <use xlink:href="#DejaVuSans-30" x="1297.273438"/>
    </g>
   </g>
  </g>
  <g id="axes_6">
   <g id="LineCollection_5">
    <path d="M 348.359799 82.730323 
L 341.000603 81.678461 
" clip-path="url(#p1453a10dae)" style="fill: none; stroke: #000000"/>
    <path d="M 348.359799 82.730323 
L 351.386754 78.200027 
" clip-path="url(#p1453a10dae)" style="fill: none; stroke: #000000"/>
    <path d="M 341.000603 81.678461 
L 338.624837 76.568654 
" clip-path="url(#p1453a10dae)" style="fill: none; stroke: #000000"/>
    <path d="M 338.624837 76.568654 
L 339.79155 70.183054 
" clip-path="url(#p1453a10dae)" style="fill: none; stroke: #000000"/>
    <path d="M 339.79155 70.183054 
L 349.760659 72.110823 
" clip-path="url(#p1453a10dae)" style="fill: none; stroke: #000000"/>
    <path d="M 339.79155 70.183054 
L 335.664069 62.619799 
" clip-path="url(#p1453a10dae)" style="fill: none; stroke: #000000"/>
    <path d="M 349.760659 72.110823 
L 351.386754 78.200027 
" clip-path="url(#p1453a10dae)" style="fill: none; stroke: #000000"/>
    <path d="M 349.760659 72.110823 
L 354.221332 66.128257 
" clip-path="url(#p1453a10dae)" style="fill: none; stroke: #000000"/>
    <path d="M 354.221332 66.128257 
L 363.176713 62.793435 
" clip-path="url(#p1453a10dae)" style="fill: none; stroke: #000000"/>
    <path d="M 354.221332 66.128257 
L 346.566827 61.595131 
" clip-path="url(#p1453a10dae)" style="fill: none; stroke: #000000"/>
    <path d="M 363.176713 62.793435 
L 366.353872 57.786397 
" clip-path="url(#p1453a10dae)" style="fill: none; stroke: #000000"/>
    <path d="M 366.353872 57.786397 
L 362.644139 52.976763 
" clip-path="url(#p1453a10dae)" style="fill: none; stroke: #000000"/>
    <path d="M 362.644139 52.976763 
L 348.468344 55.682402 
" clip-path="url(#p1453a10dae)" style="fill: none; stroke: #000000"/>
    <path d="M 362.644139 52.976763 
L 372.975305 48.092226 
" clip-path="url(#p1453a10dae)" style="fill: none; stroke: #000000"/>
    <path d="M 348.468344 55.682402 
L 346.566827 61.595131 
" clip-path="url(#p1453a10dae)" style="fill: none; stroke: #000000"/>
    <path d="M 348.468344 55.682402 
L 334.079297 55.365872 
" clip-path="url(#p1453a10dae)" style="fill: none; stroke: #000000"/>
    <path d="M 346.566827 61.595131 
L 335.664069 62.619799 
" clip-path="url(#p1453a10dae)" style="fill: none; stroke: #000000"/>
    <path d="M 335.664069 62.619799 
L 326.097319 55.792444 
" clip-path="url(#p1453a10dae)" style="fill: none; stroke: #000000"/>
    <path d="M 326.097319 55.792444 
L 319.512429 56.205965 
" clip-path="url(#p1453a10dae)" style="fill: none; stroke: #000000"/>
    <path d="M 326.097319 55.792444 
L 319.913099 48.718642 
" clip-path="url(#p1453a10dae)" style="fill: none; stroke: #000000"/>
    <path d="M 319.512429 56.205965 
L 334.079297 55.365872 
" clip-path="url(#p1453a10dae)" style="fill: none; stroke: #000000"/>
    <path d="M 319.512429 56.205965 
L 305.362974 57.127512 
" clip-path="url(#p1453a10dae)" style="fill: none; stroke: #000000"/>
    <path d="M 305.362974 57.127512 
L 296.35501 55.655658 
" clip-path="url(#p1453a10dae)" style="fill: none; stroke: #000000"/>
    <path d="M 305.362974 57.127512 
L 297.170434 59.448345 
" clip-path="url(#p1453a10dae)" style="fill: none; stroke: #000000"/>
    <path d="M 319.913099 48.718642 
L 319.149929 43.710968 
" clip-path="url(#p1453a10dae)" style="fill: none; stroke: #000000"/>
    <path d="M 319.913099 48.718642 
L 312.859314 45.300455 
" clip-path="url(#p1453a10dae)" style="fill: none; stroke: #000000"/>
    <path d="M 372.975305 48.092226 
L 381.790417 46.54756 
" clip-path="url(#p1453a10dae)" style="fill: none; stroke: #000000"/>
    <path d="M 372.975305 48.092226 
L 376.287151 43.72846 
" clip-path="url(#p1453a10dae)" style="fill: none; stroke: #000000"/>
   </g>
   <g id="PathCollection_6">
    <defs>
     <path id="C4_0_be06c2f913" d="M 0 1.118034 
C 0.296506 1.118034 0.580908 1.000231 0.790569 0.790569 
C 1.000231 0.580908 1.118034 0.296506 1.118034 -0 
C 1.118034 -0.296506 1.000231 -0.580908 0.790569 -0.790569 
C 0.580908 -1.000231 0.296506 -1.118034 0 -1.118034 
C -0.296506 -1.118034 -0.580908 -1.000231 -0.790569 -0.790569 
C -1.000231 -0.580908 -1.118034 -0.296506 -1.118034 0 
C -1.118034 0.296506 -1.000231 0.580908 -0.790569 0.790569 
C -0.580908 1.000231 -0.296506 1.118034 0 1.118034 
z
"/>
    </defs>
    <g clip-path="url(#p1453a10dae)">
     <use xlink:href="#C4_0_be06c2f913" x="348.359799" y="82.730323" style="fill: #c957db; stroke: #c957db"/>
    </g>
    <g clip-path="url(#p1453a10dae)">
     <use xlink:href="#C4_0_be06c2f913" x="341.000603" y="81.678461" style="fill: #c957db; stroke: #c957db"/>
    </g>
    <g clip-path="url(#p1453a10dae)">
     <use xlink:href="#C4_0_be06c2f913" x="338.624837" y="76.568654" style="fill: #c957db; stroke: #c957db"/>
    </g>
    <g clip-path="url(#p1453a10dae)">
     <use xlink:href="#C4_0_be06c2f913" x="339.79155" y="70.183054" style="fill: #c957db; stroke: #c957db"/>
    </g>
    <g clip-path="url(#p1453a10dae)">
     <use xlink:href="#C4_0_be06c2f913" x="349.760659" y="72.110823" style="fill: #c957db; stroke: #c957db"/>
    </g>
    <g clip-path="url(#p1453a10dae)">
     <use xlink:href="#C4_0_be06c2f913" x="351.386754" y="78.200027" style="fill: #c957db; stroke: #c957db"/>
    </g>
    <g clip-path="url(#p1453a10dae)">
     <use xlink:href="#C4_0_be06c2f913" x="354.221332" y="66.128257" style="fill: #c957db; stroke: #c957db"/>
    </g>
    <g clip-path="url(#p1453a10dae)">
     <use xlink:href="#C4_0_be06c2f913" x="363.176713" y="62.793435" style="fill: #c957db; stroke: #c957db"/>
    </g>
    <g clip-path="url(#p1453a10dae)">
     <use xlink:href="#C4_0_be06c2f913" x="366.353872" y="57.786397" style="fill: #c957db; stroke: #c957db"/>
    </g>
    <g clip-path="url(#p1453a10dae)">
     <use xlink:href="#C4_0_be06c2f913" x="362.644139" y="52.976763" style="fill: #c957db; stroke: #c957db"/>
    </g>
    <g clip-path="url(#p1453a10dae)">
     <use xlink:href="#C4_0_be06c2f913" x="348.468344" y="55.682402" style="fill: #c957db; stroke: #c957db"/>
    </g>
    <g clip-path="url(#p1453a10dae)">
     <use xlink:href="#C4_0_be06c2f913" x="346.566827" y="61.595131" style="fill: #c957db; stroke: #c957db"/>
    </g>
    <g clip-path="url(#p1453a10dae)">
     <use xlink:href="#C4_0_be06c2f913" x="335.664069" y="62.619799" style="fill: #c957db; stroke: #c957db"/>
    </g>
    <g clip-path="url(#p1453a10dae)">
     <use xlink:href="#C4_0_be06c2f913" x="326.097319" y="55.792444" style="fill: #c957db; stroke: #c957db"/>
    </g>
    <g clip-path="url(#p1453a10dae)">
     <use xlink:href="#C4_0_be06c2f913" x="319.512429" y="56.205965" style="fill: #c957db; stroke: #c957db"/>
    </g>
    <g clip-path="url(#p1453a10dae)">
     <use xlink:href="#C4_0_be06c2f913" x="334.079297" y="55.365872" style="fill: #c957db; stroke: #c957db"/>
    </g>
    <g clip-path="url(#p1453a10dae)">
     <use xlink:href="#C4_0_be06c2f913" x="305.362974" y="57.127512" style="fill: #c957db; stroke: #c957db"/>
    </g>
    <g clip-path="url(#p1453a10dae)">
     <use xlink:href="#C4_0_be06c2f913" x="296.35501" y="55.655658" style="fill: #c957db; stroke: #c957db"/>
    </g>
    <g clip-path="url(#p1453a10dae)">
     <use xlink:href="#C4_0_be06c2f913" x="297.170434" y="59.448345" style="fill: #c957db; stroke: #c957db"/>
    </g>
    <g clip-path="url(#p1453a10dae)">
     <use xlink:href="#C4_0_be06c2f913" x="319.913099" y="48.718642" style="fill: #c957db; stroke: #c957db"/>
    </g>
    <g clip-path="url(#p1453a10dae)">
     <use xlink:href="#C4_0_be06c2f913" x="319.149929" y="43.710968" style="fill: #c957db; stroke: #c957db"/>
    </g>
    <g clip-path="url(#p1453a10dae)">
     <use xlink:href="#C4_0_be06c2f913" x="312.859314" y="45.300455" style="fill: #c957db; stroke: #c957db"/>
    </g>
    <g clip-path="url(#p1453a10dae)">
     <use xlink:href="#C4_0_be06c2f913" x="372.975305" y="48.092226" style="fill: #c957db; stroke: #c957db"/>
    </g>
    <g clip-path="url(#p1453a10dae)">
     <use xlink:href="#C4_0_be06c2f913" x="381.790417" y="46.54756" style="fill: #c957db; stroke: #c957db"/>
    </g>
    <g clip-path="url(#p1453a10dae)">
     <use xlink:href="#C4_0_be06c2f913" x="376.287151" y="43.72846" style="fill: #c957db; stroke: #c957db"/>
    </g>
   </g>
   <g id="text_12">
    <!-- Graph ID: 81, y-label: 1.0 -->
    <g transform="translate(286.544905 35.76)scale(0.0833 -0.0833)">
     <use xlink:href="#DejaVuSans-47"/>
     <use xlink:href="#DejaVuSans-72" x="77.490234"/>
     <use xlink:href="#DejaVuSans-61" x="118.603516"/>
     <use xlink:href="#DejaVuSans-70" x="179.882812"/>
     <use xlink:href="#DejaVuSans-68" x="243.359375"/>
     <use xlink:href="#DejaVuSans-20" x="306.738281"/>
     <use xlink:href="#DejaVuSans-49" x="338.525391"/>
     <use xlink:href="#DejaVuSans-44" x="368.017578"/>
     <use xlink:href="#DejaVuSans-3a" x="445.019531"/>
     <use xlink:href="#DejaVuSans-20" x="478.710938"/>
     <use xlink:href="#DejaVuSans-38" x="510.498047"/>
     <use xlink:href="#DejaVuSans-31" x="574.121094"/>
     <use xlink:href="#DejaVuSans-2c" x="637.744141"/>
     <use xlink:href="#DejaVuSans-20" x="669.53125"/>
     <use xlink:href="#DejaVuSans-79" x="701.318359"/>
     <use xlink:href="#DejaVuSans-2d" x="758.748047"/>
     <use xlink:href="#DejaVuSans-6c" x="794.832031"/>
     <use xlink:href="#DejaVuSans-61" x="822.615234"/>
     <use xlink:href="#DejaVuSans-62" x="883.894531"/>
     <use xlink:href="#DejaVuSans-65" x="947.371094"/>
     <use xlink:href="#DejaVuSans-6c" x="1008.894531"/>
     <use xlink:href="#DejaVuSans-3a" x="1036.677734"/>
     <use xlink:href="#DejaVuSans-20" x="1070.369141"/>
     <use xlink:href="#DejaVuSans-31" x="1102.15625"/>
     <use xlink:href="#DejaVuSans-2e" x="1165.779297"/>
     <use xlink:href="#DejaVuSans-30" x="1197.566406"/>
    </g>
   </g>
  </g>
  <g id="text_13">
   <!-- Feature: NF_conv_node_feature0_std -->
   <g transform="translate(91.144375 16.318125)scale(0.12 -0.12)">
    <defs>
     <path id="DejaVuSans-46" d="M 628 4666 
L 3309 4666 
L 3309 4134 
L 1259 4134 
L 1259 2759 
L 3109 2759 
L 3109 2228 
L 1259 2228 
L 1259 0 
L 628 0 
L 628 4666 
z
" transform="scale(0.015625)"/>
     <path id="DejaVuSans-74" d="M 1172 4494 
L 1172 3500 
L 2356 3500 
L 2356 3053 
L 1172 3053 
L 1172 1153 
Q 1172 725 1289 603 
Q 1406 481 1766 481 
L 2356 481 
L 2356 0 
L 1766 0 
Q 1100 0 847 248 
Q 594 497 594 1153 
L 594 3053 
L 172 3053 
L 172 3500 
L 594 3500 
L 594 4494 
L 1172 4494 
z
" transform="scale(0.015625)"/>
     <path id="DejaVuSans-75" d="M 544 1381 
L 544 3500 
L 1119 3500 
L 1119 1403 
Q 1119 906 1312 657 
Q 1506 409 1894 409 
Q 2359 409 2629 706 
Q 2900 1003 2900 1516 
L 2900 3500 
L 3475 3500 
L 3475 0 
L 2900 0 
L 2900 538 
Q 2691 219 2414 64 
Q 2138 -91 1772 -91 
Q 1169 -91 856 284 
Q 544 659 544 1381 
z
M 1991 3584 
L 1991 3584 
z
" transform="scale(0.015625)"/>
     <path id="DejaVuSans-4e" d="M 628 4666 
L 1478 4666 
L 3547 763 
L 3547 4666 
L 4159 4666 
L 4159 0 
L 3309 0 
L 1241 3903 
L 1241 0 
L 628 0 
L 628 4666 
z
" transform="scale(0.015625)"/>
     <path id="DejaVuSans-5f" d="M 3263 -1063 
L 3263 -1509 
L -63 -1509 
L -63 -1063 
L 3263 -1063 
z
" transform="scale(0.015625)"/>
     <path id="DejaVuSans-63" d="M 3122 3366 
L 3122 2828 
Q 2878 2963 2633 3030 
Q 2388 3097 2138 3097 
Q 1578 3097 1268 2742 
Q 959 2388 959 1747 
Q 959 1106 1268 751 
Q 1578 397 2138 397 
Q 2388 397 2633 464 
Q 2878 531 3122 666 
L 3122 134 
Q 2881 22 2623 -34 
Q 2366 -91 2075 -91 
Q 1284 -91 818 406 
Q 353 903 353 1747 
Q 353 2603 823 3093 
Q 1294 3584 2113 3584 
Q 2378 3584 2631 3529 
Q 2884 3475 3122 3366 
z
" transform="scale(0.015625)"/>
     <path id="DejaVuSans-6f" d="M 1959 3097 
Q 1497 3097 1228 2736 
Q 959 2375 959 1747 
Q 959 1119 1226 758 
Q 1494 397 1959 397 
Q 2419 397 2687 759 
Q 2956 1122 2956 1747 
Q 2956 2369 2687 2733 
Q 2419 3097 1959 3097 
z
M 1959 3584 
Q 2709 3584 3137 3096 
Q 3566 2609 3566 1747 
Q 3566 888 3137 398 
Q 2709 -91 1959 -91 
Q 1206 -91 779 398 
Q 353 888 353 1747 
Q 353 2609 779 3096 
Q 1206 3584 1959 3584 
z
" transform="scale(0.015625)"/>
     <path id="DejaVuSans-6e" d="M 3513 2113 
L 3513 0 
L 2938 0 
L 2938 2094 
Q 2938 2591 2744 2837 
Q 2550 3084 2163 3084 
Q 1697 3084 1428 2787 
Q 1159 2491 1159 1978 
L 1159 0 
L 581 0 
L 581 3500 
L 1159 3500 
L 1159 2956 
Q 1366 3272 1645 3428 
Q 1925 3584 2291 3584 
Q 2894 3584 3203 3211 
Q 3513 2838 3513 2113 
z
" transform="scale(0.015625)"/>
     <path id="DejaVuSans-76" d="M 191 3500 
L 800 3500 
L 1894 563 
L 2988 3500 
L 3597 3500 
L 2284 0 
L 1503 0 
L 191 3500 
z
" transform="scale(0.015625)"/>
     <path id="DejaVuSans-64" d="M 2906 2969 
L 2906 4863 
L 3481 4863 
L 3481 0 
L 2906 0 
L 2906 525 
Q 2725 213 2448 61 
Q 2172 -91 1784 -91 
Q 1150 -91 751 415 
Q 353 922 353 1747 
Q 353 2572 751 3078 
Q 1150 3584 1784 3584 
Q 2172 3584 2448 3432 
Q 2725 3281 2906 2969 
z
M 947 1747 
Q 947 1113 1208 752 
Q 1469 391 1925 391 
Q 2381 391 2643 752 
Q 2906 1113 2906 1747 
Q 2906 2381 2643 2742 
Q 2381 3103 1925 3103 
Q 1469 3103 1208 2742 
Q 947 2381 947 1747 
z
" transform="scale(0.015625)"/>
     <path id="DejaVuSans-66" d="M 2375 4863 
L 2375 4384 
L 1825 4384 
Q 1516 4384 1395 4259 
Q 1275 4134 1275 3809 
L 1275 3500 
L 2222 3500 
L 2222 3053 
L 1275 3053 
L 1275 0 
L 697 0 
L 697 3053 
L 147 3053 
L 147 3500 
L 697 3500 
L 697 3744 
Q 697 4328 969 4595 
Q 1241 4863 1831 4863 
L 2375 4863 
z
" transform="scale(0.015625)"/>
     <path id="DejaVuSans-73" d="M 2834 3397 
L 2834 2853 
Q 2591 2978 2328 3040 
Q 2066 3103 1784 3103 
Q 1356 3103 1142 2972 
Q 928 2841 928 2578 
Q 928 2378 1081 2264 
Q 1234 2150 1697 2047 
L 1894 2003 
Q 2506 1872 2764 1633 
Q 3022 1394 3022 966 
Q 3022 478 2636 193 
Q 2250 -91 1575 -91 
Q 1294 -91 989 -36 
Q 684 19 347 128 
L 347 722 
Q 666 556 975 473 
Q 1284 391 1588 391 
Q 1994 391 2212 530 
Q 2431 669 2431 922 
Q 2431 1156 2273 1281 
Q 2116 1406 1581 1522 
L 1381 1569 
Q 847 1681 609 1914 
Q 372 2147 372 2553 
Q 372 3047 722 3315 
Q 1072 3584 1716 3584 
Q 2034 3584 2315 3537 
Q 2597 3491 2834 3397 
z
" transform="scale(0.015625)"/>
    </defs>
    <use xlink:href="#DejaVuSans-46"/>
    <use xlink:href="#DejaVuSans-65" x="52.019531"/>
    <use xlink:href="#DejaVuSans-61" x="113.542969"/>
    <use xlink:href="#DejaVuSans-74" x="174.822266"/>
    <use xlink:href="#DejaVuSans-75" x="214.03125"/>
    <use xlink:href="#DejaVuSans-72" x="277.410156"/>
    <use xlink:href="#DejaVuSans-65" x="316.273438"/>
    <use xlink:href="#DejaVuSans-3a" x="377.796875"/>
    <use xlink:href="#DejaVuSans-20" x="411.488281"/>
    <use xlink:href="#DejaVuSans-4e" x="443.275391"/>
    <use xlink:href="#DejaVuSans-46" x="518.080078"/>
    <use xlink:href="#DejaVuSans-5f" x="575.599609"/>
    <use xlink:href="#DejaVuSans-63" x="625.599609"/>
    <use xlink:href="#DejaVuSans-6f" x="680.580078"/>
    <use xlink:href="#DejaVuSans-6e" x="741.761719"/>
    <use xlink:href="#DejaVuSans-76" x="805.140625"/>
    <use xlink:href="#DejaVuSans-5f" x="864.320312"/>
    <use xlink:href="#DejaVuSans-6e" x="914.320312"/>
    <use xlink:href="#DejaVuSans-6f" x="977.699219"/>
    <use xlink:href="#DejaVuSans-64" x="1038.880859"/>
    <use xlink:href="#DejaVuSans-65" x="1102.357422"/>
    <use xlink:href="#DejaVuSans-5f" x="1163.880859"/>
    <use xlink:href="#DejaVuSans-66" x="1213.880859"/>
    <use xlink:href="#DejaVuSans-65" x="1249.085938"/>
    <use xlink:href="#DejaVuSans-61" x="1310.609375"/>
    <use xlink:href="#DejaVuSans-74" x="1371.888672"/>
    <use xlink:href="#DejaVuSans-75" x="1411.097656"/>
    <use xlink:href="#DejaVuSans-72" x="1474.476562"/>
    <use xlink:href="#DejaVuSans-65" x="1513.339844"/>
    <use xlink:href="#DejaVuSans-30" x="1574.863281"/>
    <use xlink:href="#DejaVuSans-5f" x="1638.486328"/>
    <use xlink:href="#DejaVuSans-73" x="1688.486328"/>
    <use xlink:href="#DejaVuSans-74" x="1740.585938"/>
    <use xlink:href="#DejaVuSans-64" x="1779.794922"/>
   </g>
  </g>
 </g>
 <defs>
  <clipPath id="pc06f891171">
   <rect x="28.942188" y="41.76" width="225.549474" height="266.112"/>
  </clipPath>
  <clipPath id="p755b79492b">
   <rect x="292.08324" y="264.95071" width="93.978947" height="42.92129"/>
  </clipPath>
  <clipPath id="p19d69807e4">
   <rect x="292.08324" y="209.153032" width="93.978947" height="42.92129"/>
  </clipPath>
  <clipPath id="p91c59d62e0">
   <rect x="292.08324" y="153.355355" width="93.978947" height="42.92129"/>
  </clipPath>
  <clipPath id="p8109ec6a50">
   <rect x="292.08324" y="97.557677" width="93.978947" height="42.92129"/>
  </clipPath>
  <clipPath id="p1453a10dae">
   <rect x="292.08324" y="41.76" width="93.978947" height="42.92129"/>
  </clipPath>
 </defs>
</svg>
