<?xml version="1.0" encoding="utf-8" standalone="no"?>
<!DOCTYPE svg PUBLIC "-//W3C//DTD SVG 1.1//EN"
  "http://www.w3.org/Graphics/SVG/1.1/DTD/svg11.dtd">
<svg xmlns:xlink="http://www.w3.org/1999/xlink" width="400.303176pt" height="331.750125pt" viewBox="0 0 400.303176 331.750125" xmlns="http://www.w3.org/2000/svg" version="1.1">
 <metadata>
  <rdf:RDF xmlns:dc="http://purl.org/dc/elements/1.1/" xmlns:cc="http://creativecommons.org/ns#" xmlns:rdf="http://www.w3.org/1999/02/22-rdf-syntax-ns#">
   <cc:Work>
    <dc:type rdf:resource="http://purl.org/dc/dcmitype/StillImage"/>
    <dc:date>2022-06-27T14:32:17.907987</dc:date>
    <dc:format>image/svg+xml</dc:format>
    <dc:creator>
     <cc:Agent>
      <dc:title>Matplotlib v3.5.1, https://matplotlib.org/</dc:title>
     </cc:Agent>
    </dc:creator>
   </cc:Work>
  </rdf:RDF>
 </metadata>
 <defs>
  <style type="text/css">*{stroke-linejoin: round; stroke-linecap: butt}</style>
 </defs>
 <g id="figure_1">
  <g id="patch_1">
   <path d="M 0 331.750125 
L 400.303176 331.750125 
L 400.303176 0 
L 0 0 
z
" style="fill: #ffffff"/>
  </g>
  <g id="axes_1">
   <g id="patch_2">
    <path d="M 28.942188 307.872 
L 254.491661 307.872 
L 254.491661 41.76 
L 28.942188 41.76 
z
" style="fill: #ffffff"/>
   </g>
   <g id="PolyCollection_1">
    <defs>
     <path id="m1656996f8f" d="M 142.14516 -35.974125 
L 141.288689 -35.974125 
L 140.005034 -38.417761 
L 136.382008 -40.861398 
L 127.313927 -43.305034 
L 110.735725 -45.74867 
L 94.893267 -48.192307 
L 91.338843 -50.635943 
L 92.473261 -53.07958 
L 85.098994 -55.523216 
L 74.211947 -57.966852 
L 65.655929 -60.410489 
L 56.90908 -62.854125 
L 51.497135 -65.297761 
L 51.676738 -67.741398 
L 53.441162 -70.185034 
L 57.974865 -72.62867 
L 65.898317 -75.072307 
L 71.625577 -77.515943 
L 74.279796 -79.95958 
L 78.9228 -82.403216 
L 86.055863 -84.846852 
L 93.032806 -87.290489 
L 98.328221 -89.734125 
L 101.450934 -92.177761 
L 105.44337 -94.621398 
L 111.92483 -97.065034 
L 118.462708 -99.50867 
L 122.879558 -101.952307 
L 124.559605 -104.395943 
L 122.284564 -106.83958 
L 117.855333 -109.283216 
L 117.632689 -111.726852 
L 120.936437 -114.170489 
L 120.747097 -116.614125 
L 118.322778 -119.057761 
L 120.229312 -121.501398 
L 124.265449 -123.945034 
L 123.851036 -126.38867 
L 121.300286 -128.832307 
L 122.8128 -131.275943 
L 127.548138 -133.71958 
L 130.155652 -136.163216 
L 129.063324 -138.606852 
L 128.42077 -141.050489 
L 130.854498 -143.494125 
L 133.073833 -145.937761 
L 133.002612 -148.381398 
L 133.071561 -150.825034 
L 134.655975 -153.26867 
L 136.907763 -155.712307 
L 139.112579 -158.155943 
L 140.687403 -160.59958 
L 141.175906 -163.043216 
L 140.349063 -165.486852 
L 138.212678 -167.930489 
L 136.270077 -170.374125 
L 136.693331 -172.817761 
L 138.871533 -175.261398 
L 140.050538 -177.705034 
L 138.336567 -180.14867 
L 133.924561 -182.592307 
L 130.583301 -185.035943 
L 132.281805 -187.47958 
L 136.984493 -189.923216 
L 140.312157 -192.366852 
L 141.470147 -194.810489 
L 141.691268 -197.254125 
L 141.715346 -199.697761 
L 141.716867 -202.141398 
L 141.716923 -204.585034 
L 141.716924 -207.02867 
L 141.716924 -209.472307 
L 141.716924 -211.915943 
L 141.716924 -214.35958 
L 141.716924 -216.803216 
L 141.716924 -219.246852 
L 141.716924 -221.690489 
L 141.716924 -224.134125 
L 141.716924 -226.577761 
L 141.716924 -229.021398 
L 141.716924 -231.465034 
L 141.716924 -233.90867 
L 141.716924 -236.352307 
L 141.716924 -238.795943 
L 141.716924 -241.23958 
L 141.716924 -243.683216 
L 141.716924 -246.126852 
L 141.716924 -248.570489 
L 141.716924 -251.014125 
L 141.716921 -253.457761 
L 141.716821 -255.901398 
L 141.714824 -258.345034 
L 141.691694 -260.78867 
L 141.537592 -263.232307 
L 140.962586 -265.675943 
L 139.839098 -268.11958 
L 138.950458 -270.563216 
L 139.304928 -273.006852 
L 140.472385 -275.450489 
L 141.336891 -277.894125 
L 142.096958 -277.894125 
L 142.096958 -277.894125 
L 142.961464 -275.450489 
L 144.12892 -273.006852 
L 144.483391 -270.563216 
L 143.59475 -268.11958 
L 142.471263 -265.675943 
L 141.896257 -263.232307 
L 141.742155 -260.78867 
L 141.719025 -258.345034 
L 141.717028 -255.901398 
L 141.716927 -253.457761 
L 141.716924 -251.014125 
L 141.716924 -248.570489 
L 141.716924 -246.126852 
L 141.716924 -243.683216 
L 141.716924 -241.23958 
L 141.716924 -238.795943 
L 141.716924 -236.352307 
L 141.716924 -233.90867 
L 141.716924 -231.465034 
L 141.716924 -229.021398 
L 141.716924 -226.577761 
L 141.716924 -224.134125 
L 141.716924 -221.690489 
L 141.716924 -219.246852 
L 141.716924 -216.803216 
L 141.716924 -214.35958 
L 141.716924 -211.915943 
L 141.716924 -209.472307 
L 141.716924 -207.02867 
L 141.716926 -204.585034 
L 141.716982 -202.141398 
L 141.718503 -199.697761 
L 141.74258 -197.254125 
L 141.963702 -194.810489 
L 143.121692 -192.366852 
L 146.449356 -189.923216 
L 151.152044 -187.47958 
L 152.850548 -185.035943 
L 149.509287 -182.592307 
L 145.097282 -180.14867 
L 143.383311 -177.705034 
L 144.562315 -175.261398 
L 146.740518 -172.817761 
L 147.163772 -170.374125 
L 145.22117 -167.930489 
L 143.084785 -165.486852 
L 142.257942 -163.043216 
L 142.746446 -160.59958 
L 144.321269 -158.155943 
L 146.526086 -155.712307 
L 148.777873 -153.26867 
L 150.362288 -150.825034 
L 150.431237 -148.381398 
L 150.360016 -145.937761 
L 152.579351 -143.494125 
L 155.013079 -141.050489 
L 154.370525 -138.606852 
L 153.278197 -136.163216 
L 155.885711 -133.71958 
L 160.621049 -131.275943 
L 162.133563 -128.832307 
L 159.582813 -126.38867 
L 159.168399 -123.945034 
L 163.204537 -121.501398 
L 165.111071 -119.057761 
L 162.686752 -116.614125 
L 162.497412 -114.170489 
L 165.80116 -111.726852 
L 165.578515 -109.283216 
L 161.149284 -106.83958 
L 158.874243 -104.395943 
L 160.554291 -101.952307 
L 164.97114 -99.50867 
L 171.509019 -97.065034 
L 177.990478 -94.621398 
L 181.982915 -92.177761 
L 185.105627 -89.734125 
L 190.401043 -87.290489 
L 197.377986 -84.846852 
L 204.511049 -82.403216 
L 209.154053 -79.95958 
L 211.808271 -77.515943 
L 217.535532 -75.072307 
L 225.458983 -72.62867 
L 229.992686 -70.185034 
L 231.75711 -67.741398 
L 231.936714 -65.297761 
L 226.524769 -62.854125 
L 217.777919 -60.410489 
L 209.221902 -57.966852 
L 198.334854 -55.523216 
L 190.960588 -53.07958 
L 192.095006 -50.635943 
L 188.540582 -48.192307 
L 172.698123 -45.74867 
L 156.119921 -43.305034 
L 147.05184 -40.861398 
L 143.428815 -38.417761 
L 142.14516 -35.974125 
z
" style="stroke: #545454; stroke-width: 1.5"/>
    </defs>
    <g clip-path="url(#pd759f15939)">
     <use xlink:href="#m1656996f8f" x="0" y="331.750125" style="fill: #597dbf; stroke: #545454; stroke-width: 1.5"/>
    </g>
   </g>
   <g id="matplotlib.axis_1">
    <g id="xtick_1">
     <g id="line2d_1">
      <defs>
       <path id="m640147b71b" d="M 0 0 
L 0 3.5 
" style="stroke: #000000; stroke-width: 0.8"/>
      </defs>
      <g>
       <use xlink:href="#m640147b71b" x="141.716924" y="307.872" style="stroke: #000000; stroke-width: 0.8"/>
      </g>
     </g>
     <g id="text_1">
      <!-- 0 -->
      <g transform="translate(138.535674 322.470437)scale(0.1 -0.1)">
       <defs>
        <path id="DejaVuSans-30" d="M 2034 4250 
Q 1547 4250 1301 3770 
Q 1056 3291 1056 2328 
Q 1056 1369 1301 889 
Q 1547 409 2034 409 
Q 2525 409 2770 889 
Q 3016 1369 3016 2328 
Q 3016 3291 2770 3770 
Q 2525 4250 2034 4250 
z
M 2034 4750 
Q 2819 4750 3233 4129 
Q 3647 3509 3647 2328 
Q 3647 1150 3233 529 
Q 2819 -91 2034 -91 
Q 1250 -91 836 529 
Q 422 1150 422 2328 
Q 422 3509 836 4129 
Q 1250 4750 2034 4750 
z
" transform="scale(0.015625)"/>
       </defs>
       <use xlink:href="#DejaVuSans-30"/>
      </g>
     </g>
    </g>
   </g>
   <g id="matplotlib.axis_2">
    <g id="ytick_1">
     <g id="line2d_2">
      <defs>
       <path id="m79a3862afc" d="M 0 0 
L -3.5 0 
" style="stroke: #000000; stroke-width: 0.8"/>
      </defs>
      <g>
       <use xlink:href="#m79a3862afc" x="28.942188" y="279.529282" style="stroke: #000000; stroke-width: 0.8"/>
      </g>
     </g>
     <g id="text_2">
      <!-- −1 -->
      <g transform="translate(7.2 283.328501)scale(0.1 -0.1)">
       <defs>
        <path id="DejaVuSans-2212" d="M 678 2272 
L 4684 2272 
L 4684 1741 
L 678 1741 
L 678 2272 
z
" transform="scale(0.015625)"/>
        <path id="DejaVuSans-31" d="M 794 531 
L 1825 531 
L 1825 4091 
L 703 3866 
L 703 4441 
L 1819 4666 
L 2450 4666 
L 2450 531 
L 3481 531 
L 3481 0 
L 794 0 
L 794 531 
z
" transform="scale(0.015625)"/>
       </defs>
       <use xlink:href="#DejaVuSans-2212"/>
       <use xlink:href="#DejaVuSans-31" x="83.789062"/>
      </g>
     </g>
    </g>
    <g id="ytick_2">
     <g id="line2d_3">
      <g>
       <use xlink:href="#m79a3862afc" x="28.942188" y="245.880008" style="stroke: #000000; stroke-width: 0.8"/>
      </g>
     </g>
     <g id="text_3">
      <!-- 0 -->
      <g transform="translate(15.579688 249.679227)scale(0.1 -0.1)">
       <use xlink:href="#DejaVuSans-30"/>
      </g>
     </g>
    </g>
    <g id="ytick_3">
     <g id="line2d_4">
      <g>
       <use xlink:href="#m79a3862afc" x="28.942188" y="212.230733" style="stroke: #000000; stroke-width: 0.8"/>
      </g>
     </g>
     <g id="text_4">
      <!-- 1 -->
      <g transform="translate(15.579688 216.029952)scale(0.1 -0.1)">
       <use xlink:href="#DejaVuSans-31"/>
      </g>
     </g>
    </g>
    <g id="ytick_4">
     <g id="line2d_5">
      <g>
       <use xlink:href="#m79a3862afc" x="28.942188" y="178.581459" style="stroke: #000000; stroke-width: 0.8"/>
      </g>
     </g>
     <g id="text_5">
      <!-- 2 -->
      <g transform="translate(15.579688 182.380678)scale(0.1 -0.1)">
       <defs>
        <path id="DejaVuSans-32" d="M 1228 531 
L 3431 531 
L 3431 0 
L 469 0 
L 469 531 
Q 828 903 1448 1529 
Q 2069 2156 2228 2338 
Q 2531 2678 2651 2914 
Q 2772 3150 2772 3378 
Q 2772 3750 2511 3984 
Q 2250 4219 1831 4219 
Q 1534 4219 1204 4116 
Q 875 4013 500 3803 
L 500 4441 
Q 881 4594 1212 4672 
Q 1544 4750 1819 4750 
Q 2544 4750 2975 4387 
Q 3406 4025 3406 3419 
Q 3406 3131 3298 2873 
Q 3191 2616 2906 2266 
Q 2828 2175 2409 1742 
Q 1991 1309 1228 531 
z
" transform="scale(0.015625)"/>
       </defs>
       <use xlink:href="#DejaVuSans-32"/>
      </g>
     </g>
    </g>
    <g id="ytick_5">
     <g id="line2d_6">
      <g>
       <use xlink:href="#m79a3862afc" x="28.942188" y="144.932184" style="stroke: #000000; stroke-width: 0.8"/>
      </g>
     </g>
     <g id="text_6">
      <!-- 3 -->
      <g transform="translate(15.579688 148.731403)scale(0.1 -0.1)">
       <defs>
        <path id="DejaVuSans-33" d="M 2597 2516 
Q 3050 2419 3304 2112 
Q 3559 1806 3559 1356 
Q 3559 666 3084 287 
Q 2609 -91 1734 -91 
Q 1441 -91 1130 -33 
Q 819 25 488 141 
L 488 750 
Q 750 597 1062 519 
Q 1375 441 1716 441 
Q 2309 441 2620 675 
Q 2931 909 2931 1356 
Q 2931 1769 2642 2001 
Q 2353 2234 1838 2234 
L 1294 2234 
L 1294 2753 
L 1863 2753 
Q 2328 2753 2575 2939 
Q 2822 3125 2822 3475 
Q 2822 3834 2567 4026 
Q 2313 4219 1838 4219 
Q 1578 4219 1281 4162 
Q 984 4106 628 3988 
L 628 4550 
Q 988 4650 1302 4700 
Q 1616 4750 1894 4750 
Q 2613 4750 3031 4423 
Q 3450 4097 3450 3541 
Q 3450 3153 3228 2886 
Q 3006 2619 2597 2516 
z
" transform="scale(0.015625)"/>
       </defs>
       <use xlink:href="#DejaVuSans-33"/>
      </g>
     </g>
    </g>
    <g id="ytick_6">
     <g id="line2d_7">
      <g>
       <use xlink:href="#m79a3862afc" x="28.942188" y="111.28291" style="stroke: #000000; stroke-width: 0.8"/>
      </g>
     </g>
     <g id="text_7">
      <!-- 4 -->
      <g transform="translate(15.579688 115.082129)scale(0.1 -0.1)">
       <defs>
        <path id="DejaVuSans-34" d="M 2419 4116 
L 825 1625 
L 2419 1625 
L 2419 4116 
z
M 2253 4666 
L 3047 4666 
L 3047 1625 
L 3713 1625 
L 3713 1100 
L 3047 1100 
L 3047 0 
L 2419 0 
L 2419 1100 
L 313 1100 
L 313 1709 
L 2253 4666 
z
" transform="scale(0.015625)"/>
       </defs>
       <use xlink:href="#DejaVuSans-34"/>
      </g>
     </g>
    </g>
    <g id="ytick_7">
     <g id="line2d_8">
      <g>
       <use xlink:href="#m79a3862afc" x="28.942188" y="77.633636" style="stroke: #000000; stroke-width: 0.8"/>
      </g>
     </g>
     <g id="text_8">
      <!-- 5 -->
      <g transform="translate(15.579688 81.432854)scale(0.1 -0.1)">
       <defs>
        <path id="DejaVuSans-35" d="M 691 4666 
L 3169 4666 
L 3169 4134 
L 1269 4134 
L 1269 2991 
Q 1406 3038 1543 3061 
Q 1681 3084 1819 3084 
Q 2600 3084 3056 2656 
Q 3513 2228 3513 1497 
Q 3513 744 3044 326 
Q 2575 -91 1722 -91 
Q 1428 -91 1123 -41 
Q 819 9 494 109 
L 494 744 
Q 775 591 1075 516 
Q 1375 441 1709 441 
Q 2250 441 2565 725 
Q 2881 1009 2881 1497 
Q 2881 1984 2565 2268 
Q 2250 2553 1709 2553 
Q 1456 2553 1204 2497 
Q 953 2441 691 2322 
L 691 4666 
z
" transform="scale(0.015625)"/>
       </defs>
       <use xlink:href="#DejaVuSans-35"/>
      </g>
     </g>
    </g>
    <g id="ytick_8">
     <g id="line2d_9">
      <g>
       <use xlink:href="#m79a3862afc" x="28.942188" y="43.984361" style="stroke: #000000; stroke-width: 0.8"/>
      </g>
     </g>
     <g id="text_9">
      <!-- 6 -->
      <g transform="translate(15.579688 47.78358)scale(0.1 -0.1)">
       <defs>
        <path id="DejaVuSans-36" d="M 2113 2584 
Q 1688 2584 1439 2293 
Q 1191 2003 1191 1497 
Q 1191 994 1439 701 
Q 1688 409 2113 409 
Q 2538 409 2786 701 
Q 3034 994 3034 1497 
Q 3034 2003 2786 2293 
Q 2538 2584 2113 2584 
z
M 3366 4563 
L 3366 3988 
Q 3128 4100 2886 4159 
Q 2644 4219 2406 4219 
Q 1781 4219 1451 3797 
Q 1122 3375 1075 2522 
Q 1259 2794 1537 2939 
Q 1816 3084 2150 3084 
Q 2853 3084 3261 2657 
Q 3669 2231 3669 1497 
Q 3669 778 3244 343 
Q 2819 -91 2113 -91 
Q 1303 -91 875 529 
Q 447 1150 447 2328 
Q 447 3434 972 4092 
Q 1497 4750 2381 4750 
Q 2619 4750 2861 4703 
Q 3103 4656 3366 4563 
z
" transform="scale(0.015625)"/>
       </defs>
       <use xlink:href="#DejaVuSans-36"/>
      </g>
     </g>
    </g>
   </g>
   <g id="line2d_10">
    <path d="M 141.716924 289.028175 
L 141.716924 190.739813 
" clip-path="url(#pd759f15939)" style="fill: none; stroke: #545454; stroke-width: 1.5; stroke-linecap: square"/>
   </g>
   <g id="line2d_11">
    <path d="M 141.716924 267.98909 
L 141.716924 234.287511 
" clip-path="url(#pd759f15939)" style="fill: none; stroke: #545454; stroke-width: 4.5; stroke-linecap: square"/>
   </g>
   <g id="line2d_12">
    <path d="M 28.942188 282.683054 
L 254.491661 282.683054 
" clip-path="url(#pd759f15939)" style="fill: none; stroke-dasharray: 5.55,2.4; stroke-dashoffset: 0; stroke: #db5f57; stroke-width: 1.5"/>
   </g>
   <g id="line2d_13">
    <path d="M 28.942188 267.98909 
L 254.491661 267.98909 
" clip-path="url(#pd759f15939)" style="fill: none; stroke-dasharray: 5.55,2.4; stroke-dashoffset: 0; stroke: #b9db57; stroke-width: 1.5"/>
   </g>
   <g id="line2d_14">
    <path d="M 28.942188 255.22641 
L 254.491661 255.22641 
" clip-path="url(#pd759f15939)" style="fill: none; stroke-dasharray: 5.55,2.4; stroke-dashoffset: 0; stroke: #57db94; stroke-width: 1.5"/>
   </g>
   <g id="line2d_15">
    <path d="M 28.942188 234.441474 
L 254.491661 234.441474 
" clip-path="url(#pd759f15939)" style="fill: none; stroke-dasharray: 5.55,2.4; stroke-dashoffset: 0; stroke: #5784db; stroke-width: 1.5"/>
   </g>
   <g id="line2d_16">
    <path d="M 28.942188 146.262956 
L 254.491661 146.262956 
" clip-path="url(#pd759f15939)" style="fill: none; stroke-dasharray: 5.55,2.4; stroke-dashoffset: 0; stroke: #c957db; stroke-width: 1.5"/>
   </g>
   <g id="patch_3">
    <path d="M 28.942188 307.872 
L 28.942188 41.76 
" style="fill: none; stroke: #000000; stroke-width: 0.8; stroke-linejoin: miter; stroke-linecap: square"/>
   </g>
   <g id="patch_4">
    <path d="M 254.491661 307.872 
L 254.491661 41.76 
" style="fill: none; stroke: #000000; stroke-width: 0.8; stroke-linejoin: miter; stroke-linecap: square"/>
   </g>
   <g id="patch_5">
    <path d="M 28.942188 307.872 
L 254.491661 307.872 
" style="fill: none; stroke: #000000; stroke-width: 0.8; stroke-linejoin: miter; stroke-linecap: square"/>
   </g>
   <g id="patch_6">
    <path d="M 28.942188 41.76 
L 254.491661 41.76 
" style="fill: none; stroke: #000000; stroke-width: 0.8; stroke-linejoin: miter; stroke-linecap: square"/>
   </g>
   <g id="PathCollection_1">
    <defs>
     <path id="m6a97477ced" d="M 0 1.5 
C 0.397805 1.5 0.77937 1.341951 1.06066 1.06066 
C 1.341951 0.77937 1.5 0.397805 1.5 0 
C 1.5 -0.397805 1.341951 -0.77937 1.06066 -1.06066 
C 0.77937 -1.341951 0.397805 -1.5 0 -1.5 
C -0.397805 -1.5 -0.77937 -1.341951 -1.06066 -1.06066 
C -1.341951 -0.77937 -1.5 -0.397805 -1.5 0 
C -1.5 0.397805 -1.341951 0.77937 -1.06066 1.06066 
C -0.77937 1.341951 -0.397805 1.5 0 1.5 
z
" style="stroke: #545454"/>
    </defs>
    <g clip-path="url(#pd759f15939)">
     <use xlink:href="#m6a97477ced" x="141.716924" y="255.22641" style="fill: #ffffff; stroke: #545454"/>
    </g>
   </g>
  </g>
  <g id="axes_2">
   <g id="LineCollection_1">
    <path d="M 296.970976 305.921032 
L 296.35501 302.748025 
" clip-path="url(#pf8616555a6)" style="fill: none; stroke: #000000"/>
    <path d="M 296.970976 305.921032 
L 307.828262 305.749411 
" clip-path="url(#pf8616555a6)" style="fill: none; stroke: #000000"/>
    <path d="M 296.35501 302.748025 
L 306.349323 300.375877 
" clip-path="url(#pf8616555a6)" style="fill: none; stroke: #000000"/>
    <path d="M 306.349323 300.375877 
L 320.391887 298.751973 
" clip-path="url(#pf8616555a6)" style="fill: none; stroke: #000000"/>
    <path d="M 320.391887 298.751973 
L 318.512434 302.878069 
" clip-path="url(#pf8616555a6)" style="fill: none; stroke: #000000"/>
    <path d="M 320.391887 298.751973 
L 335.164848 294.886482 
" clip-path="url(#pf8616555a6)" style="fill: none; stroke: #000000"/>
    <path d="M 318.512434 302.878069 
L 307.828262 305.749411 
" clip-path="url(#pf8616555a6)" style="fill: none; stroke: #000000"/>
    <path d="M 318.512434 302.878069 
L 329.525417 301.224786 
" clip-path="url(#pf8616555a6)" style="fill: none; stroke: #000000"/>
    <path d="M 329.525417 301.224786 
L 336.054817 297.218976 
" clip-path="url(#pf8616555a6)" style="fill: none; stroke: #000000"/>
    <path d="M 336.054817 297.218976 
L 339.336754 291.903156 
" clip-path="url(#pf8616555a6)" style="fill: none; stroke: #000000"/>
    <path d="M 339.336754 291.903156 
L 335.164848 294.886482 
" clip-path="url(#pf8616555a6)" style="fill: none; stroke: #000000"/>
    <path d="M 339.336754 291.903156 
L 345.812112 286.023091 
" clip-path="url(#pf8616555a6)" style="fill: none; stroke: #000000"/>
    <path d="M 335.164848 294.886482 
L 350.3342 292.315944 
" clip-path="url(#pf8616555a6)" style="fill: none; stroke: #000000"/>
    <path d="M 350.3342 292.315944 
L 362.288886 288.555332 
" clip-path="url(#pf8616555a6)" style="fill: none; stroke: #000000"/>
    <path d="M 362.288886 288.555332 
L 375.394716 286.816704 
" clip-path="url(#pf8616555a6)" style="fill: none; stroke: #000000"/>
    <path d="M 362.288886 288.555332 
L 357.80215 284.470676 
" clip-path="url(#pf8616555a6)" style="fill: none; stroke: #000000"/>
    <path d="M 375.394716 286.816704 
L 381.790417 283.527936 
" clip-path="url(#pf8616555a6)" style="fill: none; stroke: #000000"/>
    <path d="M 381.790417 283.527936 
L 375.657343 280.473904 
" clip-path="url(#pf8616555a6)" style="fill: none; stroke: #000000"/>
    <path d="M 375.657343 280.473904 
L 362.780908 279.845472 
" clip-path="url(#pf8616555a6)" style="fill: none; stroke: #000000"/>
    <path d="M 362.780908 279.845472 
L 357.80215 284.470676 
" clip-path="url(#pf8616555a6)" style="fill: none; stroke: #000000"/>
    <path d="M 362.780908 279.845472 
L 353.717706 276.078988 
" clip-path="url(#pf8616555a6)" style="fill: none; stroke: #000000"/>
    <path d="M 357.80215 284.470676 
L 345.812112 286.023091 
" clip-path="url(#pf8616555a6)" style="fill: none; stroke: #000000"/>
    <path d="M 345.812112 286.023091 
L 347.4191 280.638032 
" clip-path="url(#pf8616555a6)" style="fill: none; stroke: #000000"/>
    <path d="M 347.4191 280.638032 
L 353.717706 276.078988 
" clip-path="url(#pf8616555a6)" style="fill: none; stroke: #000000"/>
    <path d="M 353.717706 276.078988 
L 352.818591 270.405738 
" clip-path="url(#pf8616555a6)" style="fill: none; stroke: #000000"/>
    <path d="M 352.818591 270.405738 
L 357.234545 266.901677 
" clip-path="url(#pf8616555a6)" style="fill: none; stroke: #000000"/>
    <path d="M 352.818591 270.405738 
L 347.558432 267.057073 
" clip-path="url(#pf8616555a6)" style="fill: none; stroke: #000000"/>
   </g>
   <g id="PathCollection_2">
    <defs>
     <path id="C0_0_7727e392cd" d="M 0 1.118034 
C 0.296506 1.118034 0.580908 1.000231 0.790569 0.790569 
C 1.000231 0.580908 1.118034 0.296506 1.118034 -0 
C 1.118034 -0.296506 1.000231 -0.580908 0.790569 -0.790569 
C 0.580908 -1.000231 0.296506 -1.118034 0 -1.118034 
C -0.296506 -1.118034 -0.580908 -1.000231 -0.790569 -0.790569 
C -1.000231 -0.580908 -1.118034 -0.296506 -1.118034 0 
C -1.118034 0.296506 -1.000231 0.580908 -0.790569 0.790569 
C -0.580908 1.000231 -0.296506 1.118034 0 1.118034 
z
"/>
    </defs>
    <g clip-path="url(#pf8616555a6)">
     <use xlink:href="#C0_0_7727e392cd" x="296.970976" y="305.921032" style="fill: #db5f57; stroke: #db5f57"/>
    </g>
    <g clip-path="url(#pf8616555a6)">
     <use xlink:href="#C0_0_7727e392cd" x="296.35501" y="302.748025" style="fill: #db5f57; stroke: #db5f57"/>
    </g>
    <g clip-path="url(#pf8616555a6)">
     <use xlink:href="#C0_0_7727e392cd" x="306.349323" y="300.375877" style="fill: #db5f57; stroke: #db5f57"/>
    </g>
    <g clip-path="url(#pf8616555a6)">
     <use xlink:href="#C0_0_7727e392cd" x="320.391887" y="298.751973" style="fill: #db5f57; stroke: #db5f57"/>
    </g>
    <g clip-path="url(#pf8616555a6)">
     <use xlink:href="#C0_0_7727e392cd" x="318.512434" y="302.878069" style="fill: #db5f57; stroke: #db5f57"/>
    </g>
    <g clip-path="url(#pf8616555a6)">
     <use xlink:href="#C0_0_7727e392cd" x="307.828262" y="305.749411" style="fill: #db5f57; stroke: #db5f57"/>
    </g>
    <g clip-path="url(#pf8616555a6)">
     <use xlink:href="#C0_0_7727e392cd" x="329.525417" y="301.224786" style="fill: #db5f57; stroke: #db5f57"/>
    </g>
    <g clip-path="url(#pf8616555a6)">
     <use xlink:href="#C0_0_7727e392cd" x="336.054817" y="297.218976" style="fill: #db5f57; stroke: #db5f57"/>
    </g>
    <g clip-path="url(#pf8616555a6)">
     <use xlink:href="#C0_0_7727e392cd" x="339.336754" y="291.903156" style="fill: #db5f57; stroke: #db5f57"/>
    </g>
    <g clip-path="url(#pf8616555a6)">
     <use xlink:href="#C0_0_7727e392cd" x="335.164848" y="294.886482" style="fill: #db5f57; stroke: #db5f57"/>
    </g>
    <g clip-path="url(#pf8616555a6)">
     <use xlink:href="#C0_0_7727e392cd" x="350.3342" y="292.315944" style="fill: #db5f57; stroke: #db5f57"/>
    </g>
    <g clip-path="url(#pf8616555a6)">
     <use xlink:href="#C0_0_7727e392cd" x="362.288886" y="288.555332" style="fill: #db5f57; stroke: #db5f57"/>
    </g>
    <g clip-path="url(#pf8616555a6)">
     <use xlink:href="#C0_0_7727e392cd" x="375.394716" y="286.816704" style="fill: #db5f57; stroke: #db5f57"/>
    </g>
    <g clip-path="url(#pf8616555a6)">
     <use xlink:href="#C0_0_7727e392cd" x="381.790417" y="283.527936" style="fill: #db5f57; stroke: #db5f57"/>
    </g>
    <g clip-path="url(#pf8616555a6)">
     <use xlink:href="#C0_0_7727e392cd" x="375.657343" y="280.473904" style="fill: #db5f57; stroke: #db5f57"/>
    </g>
    <g clip-path="url(#pf8616555a6)">
     <use xlink:href="#C0_0_7727e392cd" x="362.780908" y="279.845472" style="fill: #db5f57; stroke: #db5f57"/>
    </g>
    <g clip-path="url(#pf8616555a6)">
     <use xlink:href="#C0_0_7727e392cd" x="357.80215" y="284.470676" style="fill: #db5f57; stroke: #db5f57"/>
    </g>
    <g clip-path="url(#pf8616555a6)">
     <use xlink:href="#C0_0_7727e392cd" x="345.812112" y="286.023091" style="fill: #db5f57; stroke: #db5f57"/>
    </g>
    <g clip-path="url(#pf8616555a6)">
     <use xlink:href="#C0_0_7727e392cd" x="347.4191" y="280.638032" style="fill: #db5f57; stroke: #db5f57"/>
    </g>
    <g clip-path="url(#pf8616555a6)">
     <use xlink:href="#C0_0_7727e392cd" x="353.717706" y="276.078988" style="fill: #db5f57; stroke: #db5f57"/>
    </g>
    <g clip-path="url(#pf8616555a6)">
     <use xlink:href="#C0_0_7727e392cd" x="352.818591" y="270.405738" style="fill: #db5f57; stroke: #db5f57"/>
    </g>
    <g clip-path="url(#pf8616555a6)">
     <use xlink:href="#C0_0_7727e392cd" x="357.234545" y="266.901677" style="fill: #db5f57; stroke: #db5f57"/>
    </g>
    <g clip-path="url(#pf8616555a6)">
     <use xlink:href="#C0_0_7727e392cd" x="347.558432" y="267.057073" style="fill: #db5f57; stroke: #db5f57"/>
    </g>
   </g>
   <g id="text_10">
    <!-- Graph ID: 22, y-label: 1.0 -->
    <g transform="translate(286.544905 258.95071)scale(0.0833 -0.0833)">
     <defs>
      <path id="DejaVuSans-47" d="M 3809 666 
L 3809 1919 
L 2778 1919 
L 2778 2438 
L 4434 2438 
L 4434 434 
Q 4069 175 3628 42 
Q 3188 -91 2688 -91 
Q 1594 -91 976 548 
Q 359 1188 359 2328 
Q 359 3472 976 4111 
Q 1594 4750 2688 4750 
Q 3144 4750 3555 4637 
Q 3966 4525 4313 4306 
L 4313 3634 
Q 3963 3931 3569 4081 
Q 3175 4231 2741 4231 
Q 1884 4231 1454 3753 
Q 1025 3275 1025 2328 
Q 1025 1384 1454 906 
Q 1884 428 2741 428 
Q 3075 428 3337 486 
Q 3600 544 3809 666 
z
" transform="scale(0.015625)"/>
      <path id="DejaVuSans-72" d="M 2631 2963 
Q 2534 3019 2420 3045 
Q 2306 3072 2169 3072 
Q 1681 3072 1420 2755 
Q 1159 2438 1159 1844 
L 1159 0 
L 581 0 
L 581 3500 
L 1159 3500 
L 1159 2956 
Q 1341 3275 1631 3429 
Q 1922 3584 2338 3584 
Q 2397 3584 2469 3576 
Q 2541 3569 2628 3553 
L 2631 2963 
z
" transform="scale(0.015625)"/>
      <path id="DejaVuSans-61" d="M 2194 1759 
Q 1497 1759 1228 1600 
Q 959 1441 959 1056 
Q 959 750 1161 570 
Q 1363 391 1709 391 
Q 2188 391 2477 730 
Q 2766 1069 2766 1631 
L 2766 1759 
L 2194 1759 
z
M 3341 1997 
L 3341 0 
L 2766 0 
L 2766 531 
Q 2569 213 2275 61 
Q 1981 -91 1556 -91 
Q 1019 -91 701 211 
Q 384 513 384 1019 
Q 384 1609 779 1909 
Q 1175 2209 1959 2209 
L 2766 2209 
L 2766 2266 
Q 2766 2663 2505 2880 
Q 2244 3097 1772 3097 
Q 1472 3097 1187 3025 
Q 903 2953 641 2809 
L 641 3341 
Q 956 3463 1253 3523 
Q 1550 3584 1831 3584 
Q 2591 3584 2966 3190 
Q 3341 2797 3341 1997 
z
" transform="scale(0.015625)"/>
      <path id="DejaVuSans-70" d="M 1159 525 
L 1159 -1331 
L 581 -1331 
L 581 3500 
L 1159 3500 
L 1159 2969 
Q 1341 3281 1617 3432 
Q 1894 3584 2278 3584 
Q 2916 3584 3314 3078 
Q 3713 2572 3713 1747 
Q 3713 922 3314 415 
Q 2916 -91 2278 -91 
Q 1894 -91 1617 61 
Q 1341 213 1159 525 
z
M 3116 1747 
Q 3116 2381 2855 2742 
Q 2594 3103 2138 3103 
Q 1681 3103 1420 2742 
Q 1159 2381 1159 1747 
Q 1159 1113 1420 752 
Q 1681 391 2138 391 
Q 2594 391 2855 752 
Q 3116 1113 3116 1747 
z
" transform="scale(0.015625)"/>
      <path id="DejaVuSans-68" d="M 3513 2113 
L 3513 0 
L 2938 0 
L 2938 2094 
Q 2938 2591 2744 2837 
Q 2550 3084 2163 3084 
Q 1697 3084 1428 2787 
Q 1159 2491 1159 1978 
L 1159 0 
L 581 0 
L 581 4863 
L 1159 4863 
L 1159 2956 
Q 1366 3272 1645 3428 
Q 1925 3584 2291 3584 
Q 2894 3584 3203 3211 
Q 3513 2838 3513 2113 
z
" transform="scale(0.015625)"/>
      <path id="DejaVuSans-20" transform="scale(0.015625)"/>
      <path id="DejaVuSans-49" d="M 628 4666 
L 1259 4666 
L 1259 0 
L 628 0 
L 628 4666 
z
" transform="scale(0.015625)"/>
      <path id="DejaVuSans-44" d="M 1259 4147 
L 1259 519 
L 2022 519 
Q 2988 519 3436 956 
Q 3884 1394 3884 2338 
Q 3884 3275 3436 3711 
Q 2988 4147 2022 4147 
L 1259 4147 
z
M 628 4666 
L 1925 4666 
Q 3281 4666 3915 4102 
Q 4550 3538 4550 2338 
Q 4550 1131 3912 565 
Q 3275 0 1925 0 
L 628 0 
L 628 4666 
z
" transform="scale(0.015625)"/>
      <path id="DejaVuSans-3a" d="M 750 794 
L 1409 794 
L 1409 0 
L 750 0 
L 750 794 
z
M 750 3309 
L 1409 3309 
L 1409 2516 
L 750 2516 
L 750 3309 
z
" transform="scale(0.015625)"/>
      <path id="DejaVuSans-2c" d="M 750 794 
L 1409 794 
L 1409 256 
L 897 -744 
L 494 -744 
L 750 256 
L 750 794 
z
" transform="scale(0.015625)"/>
      <path id="DejaVuSans-79" d="M 2059 -325 
Q 1816 -950 1584 -1140 
Q 1353 -1331 966 -1331 
L 506 -1331 
L 506 -850 
L 844 -850 
Q 1081 -850 1212 -737 
Q 1344 -625 1503 -206 
L 1606 56 
L 191 3500 
L 800 3500 
L 1894 763 
L 2988 3500 
L 3597 3500 
L 2059 -325 
z
" transform="scale(0.015625)"/>
      <path id="DejaVuSans-2d" d="M 313 2009 
L 1997 2009 
L 1997 1497 
L 313 1497 
L 313 2009 
z
" transform="scale(0.015625)"/>
      <path id="DejaVuSans-6c" d="M 603 4863 
L 1178 4863 
L 1178 0 
L 603 0 
L 603 4863 
z
" transform="scale(0.015625)"/>
      <path id="DejaVuSans-62" d="M 3116 1747 
Q 3116 2381 2855 2742 
Q 2594 3103 2138 3103 
Q 1681 3103 1420 2742 
Q 1159 2381 1159 1747 
Q 1159 1113 1420 752 
Q 1681 391 2138 391 
Q 2594 391 2855 752 
Q 3116 1113 3116 1747 
z
M 1159 2969 
Q 1341 3281 1617 3432 
Q 1894 3584 2278 3584 
Q 2916 3584 3314 3078 
Q 3713 2572 3713 1747 
Q 3713 922 3314 415 
Q 2916 -91 2278 -91 
Q 1894 -91 1617 61 
Q 1341 213 1159 525 
L 1159 0 
L 581 0 
L 581 4863 
L 1159 4863 
L 1159 2969 
z
" transform="scale(0.015625)"/>
      <path id="DejaVuSans-65" d="M 3597 1894 
L 3597 1613 
L 953 1613 
Q 991 1019 1311 708 
Q 1631 397 2203 397 
Q 2534 397 2845 478 
Q 3156 559 3463 722 
L 3463 178 
Q 3153 47 2828 -22 
Q 2503 -91 2169 -91 
Q 1331 -91 842 396 
Q 353 884 353 1716 
Q 353 2575 817 3079 
Q 1281 3584 2069 3584 
Q 2775 3584 3186 3129 
Q 3597 2675 3597 1894 
z
M 3022 2063 
Q 3016 2534 2758 2815 
Q 2500 3097 2075 3097 
Q 1594 3097 1305 2825 
Q 1016 2553 972 2059 
L 3022 2063 
z
" transform="scale(0.015625)"/>
      <path id="DejaVuSans-2e" d="M 684 794 
L 1344 794 
L 1344 0 
L 684 0 
L 684 794 
z
" transform="scale(0.015625)"/>
     </defs>
     <use xlink:href="#DejaVuSans-47"/>
     <use xlink:href="#DejaVuSans-72" x="77.490234"/>
     <use xlink:href="#DejaVuSans-61" x="118.603516"/>
     <use xlink:href="#DejaVuSans-70" x="179.882812"/>
     <use xlink:href="#DejaVuSans-68" x="243.359375"/>
     <use xlink:href="#DejaVuSans-20" x="306.738281"/>
     <use xlink:href="#DejaVuSans-49" x="338.525391"/>
     <use xlink:href="#DejaVuSans-44" x="368.017578"/>
     <use xlink:href="#DejaVuSans-3a" x="445.019531"/>
     <use xlink:href="#DejaVuSans-20" x="478.710938"/>
     <use xlink:href="#DejaVuSans-32" x="510.498047"/>
     <use xlink:href="#DejaVuSans-32" x="574.121094"/>
     <use xlink:href="#DejaVuSans-2c" x="637.744141"/>
     <use xlink:href="#DejaVuSans-20" x="669.53125"/>
     <use xlink:href="#DejaVuSans-79" x="701.318359"/>
     <use xlink:href="#DejaVuSans-2d" x="758.748047"/>
     <use xlink:href="#DejaVuSans-6c" x="794.832031"/>
     <use xlink:href="#DejaVuSans-61" x="822.615234"/>
     <use xlink:href="#DejaVuSans-62" x="883.894531"/>
     <use xlink:href="#DejaVuSans-65" x="947.371094"/>
     <use xlink:href="#DejaVuSans-6c" x="1008.894531"/>
     <use xlink:href="#DejaVuSans-3a" x="1036.677734"/>
     <use xlink:href="#DejaVuSans-20" x="1070.369141"/>
     <use xlink:href="#DejaVuSans-31" x="1102.15625"/>
     <use xlink:href="#DejaVuSans-2e" x="1165.779297"/>
     <use xlink:href="#DejaVuSans-30" x="1197.566406"/>
    </g>
   </g>
  </g>
  <g id="axes_3">
   <g id="LineCollection_2">
    <path d="M 296.35501 250.123355 
L 296.785354 241.356334 
" clip-path="url(#p293d81fd71)" style="fill: none; stroke: #000000"/>
    <path d="M 296.35501 250.123355 
L 304.151002 243.328839 
" clip-path="url(#p293d81fd71)" style="fill: none; stroke: #000000"/>
    <path d="M 296.785354 241.356334 
L 306.857085 236.69911 
" clip-path="url(#p293d81fd71)" style="fill: none; stroke: #000000"/>
    <path d="M 306.857085 236.69911 
L 318.815797 232.588075 
" clip-path="url(#p293d81fd71)" style="fill: none; stroke: #000000"/>
    <path d="M 318.815797 232.588075 
L 311.330308 229.833149 
" clip-path="url(#p293d81fd71)" style="fill: none; stroke: #000000"/>
    <path d="M 318.815797 232.588075 
L 332.454161 227.439157 
" clip-path="url(#p293d81fd71)" style="fill: none; stroke: #000000"/>
    <path d="M 311.330308 229.833149 
L 304.151002 243.328839 
" clip-path="url(#p293d81fd71)" style="fill: none; stroke: #000000"/>
    <path d="M 311.330308 229.833149 
L 317.320584 216.832344 
" clip-path="url(#p293d81fd71)" style="fill: none; stroke: #000000"/>
    <path d="M 317.320584 216.832344 
L 327.281246 211.104 
" clip-path="url(#p293d81fd71)" style="fill: none; stroke: #000000"/>
    <path d="M 327.281246 211.104 
L 338.086059 214.914143 
" clip-path="url(#p293d81fd71)" style="fill: none; stroke: #000000"/>
    <path d="M 338.086059 214.914143 
L 332.454161 227.439157 
" clip-path="url(#p293d81fd71)" style="fill: none; stroke: #000000"/>
    <path d="M 338.086059 214.914143 
L 350.830407 213.758678 
" clip-path="url(#p293d81fd71)" style="fill: none; stroke: #000000"/>
    <path d="M 332.454161 227.439157 
L 343.698373 230.283017 
" clip-path="url(#p293d81fd71)" style="fill: none; stroke: #000000"/>
    <path d="M 343.698373 230.283017 
L 354.00108 227.796434 
" clip-path="url(#p293d81fd71)" style="fill: none; stroke: #000000"/>
    <path d="M 354.00108 227.796434 
L 361.625133 220.335339 
" clip-path="url(#p293d81fd71)" style="fill: none; stroke: #000000"/>
    <path d="M 361.625133 220.335339 
L 350.830407 213.758678 
" clip-path="url(#p293d81fd71)" style="fill: none; stroke: #000000"/>
    <path d="M 361.625133 220.335339 
L 373.455445 224.75462 
" clip-path="url(#p293d81fd71)" style="fill: none; stroke: #000000"/>
    <path d="M 373.455445 224.75462 
L 372.11163 232.283125 
" clip-path="url(#p293d81fd71)" style="fill: none; stroke: #000000"/>
    <path d="M 373.455445 224.75462 
L 381.790417 231.730576 
" clip-path="url(#p293d81fd71)" style="fill: none; stroke: #000000"/>
   </g>
   <g id="PathCollection_3">
    <defs>
     <path id="C1_0_4db4e53bff" d="M 0 1.118034 
C 0.296506 1.118034 0.580908 1.000231 0.790569 0.790569 
C 1.000231 0.580908 1.118034 0.296506 1.118034 -0 
C 1.118034 -0.296506 1.000231 -0.580908 0.790569 -0.790569 
C 0.580908 -1.000231 0.296506 -1.118034 0 -1.118034 
C -0.296506 -1.118034 -0.580908 -1.000231 -0.790569 -0.790569 
C -1.000231 -0.580908 -1.118034 -0.296506 -1.118034 0 
C -1.118034 0.296506 -1.000231 0.580908 -0.790569 0.790569 
C -0.580908 1.000231 -0.296506 1.118034 0 1.118034 
z
"/>
    </defs>
    <g clip-path="url(#p293d81fd71)">
     <use xlink:href="#C1_0_4db4e53bff" x="296.35501" y="250.123355" style="fill: #b9db57; stroke: #b9db57"/>
    </g>
    <g clip-path="url(#p293d81fd71)">
     <use xlink:href="#C1_0_4db4e53bff" x="296.785354" y="241.356334" style="fill: #b9db57; stroke: #b9db57"/>
    </g>
    <g clip-path="url(#p293d81fd71)">
     <use xlink:href="#C1_0_4db4e53bff" x="306.857085" y="236.69911" style="fill: #b9db57; stroke: #b9db57"/>
    </g>
    <g clip-path="url(#p293d81fd71)">
     <use xlink:href="#C1_0_4db4e53bff" x="318.815797" y="232.588075" style="fill: #b9db57; stroke: #b9db57"/>
    </g>
    <g clip-path="url(#p293d81fd71)">
     <use xlink:href="#C1_0_4db4e53bff" x="311.330308" y="229.833149" style="fill: #b9db57; stroke: #b9db57"/>
    </g>
    <g clip-path="url(#p293d81fd71)">
     <use xlink:href="#C1_0_4db4e53bff" x="304.151002" y="243.328839" style="fill: #b9db57; stroke: #b9db57"/>
    </g>
    <g clip-path="url(#p293d81fd71)">
     <use xlink:href="#C1_0_4db4e53bff" x="317.320584" y="216.832344" style="fill: #b9db57; stroke: #b9db57"/>
    </g>
    <g clip-path="url(#p293d81fd71)">
     <use xlink:href="#C1_0_4db4e53bff" x="327.281246" y="211.104" style="fill: #b9db57; stroke: #b9db57"/>
    </g>
    <g clip-path="url(#p293d81fd71)">
     <use xlink:href="#C1_0_4db4e53bff" x="338.086059" y="214.914143" style="fill: #b9db57; stroke: #b9db57"/>
    </g>
    <g clip-path="url(#p293d81fd71)">
     <use xlink:href="#C1_0_4db4e53bff" x="332.454161" y="227.439157" style="fill: #b9db57; stroke: #b9db57"/>
    </g>
    <g clip-path="url(#p293d81fd71)">
     <use xlink:href="#C1_0_4db4e53bff" x="343.698373" y="230.283017" style="fill: #b9db57; stroke: #b9db57"/>
    </g>
    <g clip-path="url(#p293d81fd71)">
     <use xlink:href="#C1_0_4db4e53bff" x="354.00108" y="227.796434" style="fill: #b9db57; stroke: #b9db57"/>
    </g>
    <g clip-path="url(#p293d81fd71)">
     <use xlink:href="#C1_0_4db4e53bff" x="361.625133" y="220.335339" style="fill: #b9db57; stroke: #b9db57"/>
    </g>
    <g clip-path="url(#p293d81fd71)">
     <use xlink:href="#C1_0_4db4e53bff" x="350.830407" y="213.758678" style="fill: #b9db57; stroke: #b9db57"/>
    </g>
    <g clip-path="url(#p293d81fd71)">
     <use xlink:href="#C1_0_4db4e53bff" x="373.455445" y="224.75462" style="fill: #b9db57; stroke: #b9db57"/>
    </g>
    <g clip-path="url(#p293d81fd71)">
     <use xlink:href="#C1_0_4db4e53bff" x="372.11163" y="232.283125" style="fill: #b9db57; stroke: #b9db57"/>
    </g>
    <g clip-path="url(#p293d81fd71)">
     <use xlink:href="#C1_0_4db4e53bff" x="381.790417" y="231.730576" style="fill: #b9db57; stroke: #b9db57"/>
    </g>
   </g>
   <g id="text_11">
    <!-- Graph ID: 0, y-label: 1.0 -->
    <g transform="translate(289.194886 203.153032)scale(0.0833 -0.0833)">
     <use xlink:href="#DejaVuSans-47"/>
     <use xlink:href="#DejaVuSans-72" x="77.490234"/>
     <use xlink:href="#DejaVuSans-61" x="118.603516"/>
     <use xlink:href="#DejaVuSans-70" x="179.882812"/>
     <use xlink:href="#DejaVuSans-68" x="243.359375"/>
     <use xlink:href="#DejaVuSans-20" x="306.738281"/>
     <use xlink:href="#DejaVuSans-49" x="338.525391"/>
     <use xlink:href="#DejaVuSans-44" x="368.017578"/>
     <use xlink:href="#DejaVuSans-3a" x="445.019531"/>
     <use xlink:href="#DejaVuSans-20" x="478.710938"/>
     <use xlink:href="#DejaVuSans-30" x="510.498047"/>
     <use xlink:href="#DejaVuSans-2c" x="574.121094"/>
     <use xlink:href="#DejaVuSans-20" x="605.908203"/>
     <use xlink:href="#DejaVuSans-79" x="637.695312"/>
     <use xlink:href="#DejaVuSans-2d" x="695.125"/>
     <use xlink:href="#DejaVuSans-6c" x="731.208984"/>
     <use xlink:href="#DejaVuSans-61" x="758.992188"/>
     <use xlink:href="#DejaVuSans-62" x="820.271484"/>
     <use xlink:href="#DejaVuSans-65" x="883.748047"/>
     <use xlink:href="#DejaVuSans-6c" x="945.271484"/>
     <use xlink:href="#DejaVuSans-3a" x="973.054688"/>
     <use xlink:href="#DejaVuSans-20" x="1006.746094"/>
     <use xlink:href="#DejaVuSans-31" x="1038.533203"/>
     <use xlink:href="#DejaVuSans-2e" x="1102.15625"/>
     <use xlink:href="#DejaVuSans-30" x="1133.943359"/>
    </g>
   </g>
  </g>
  <g id="axes_4">
   <g id="LineCollection_3">
    <path d="M 320.814432 179.874356 
L 329.582664 179.633118 
" clip-path="url(#pb993ebc233)" style="fill: none; stroke: #000000"/>
    <path d="M 320.814432 179.874356 
L 314.999425 174.778973 
" clip-path="url(#pb993ebc233)" style="fill: none; stroke: #000000"/>
    <path d="M 329.582664 179.633118 
L 337.667707 176.008324 
" clip-path="url(#pb993ebc233)" style="fill: none; stroke: #000000"/>
    <path d="M 337.667707 176.008324 
L 326.897049 170.308841 
" clip-path="url(#pb993ebc233)" style="fill: none; stroke: #000000"/>
    <path d="M 337.667707 176.008324 
L 350.875043 179.815647 
" clip-path="url(#pb993ebc233)" style="fill: none; stroke: #000000"/>
    <path d="M 326.897049 170.308841 
L 315.139813 167.472678 
" clip-path="url(#pb993ebc233)" style="fill: none; stroke: #000000"/>
    <path d="M 315.139813 167.472678 
L 314.999425 174.778973 
" clip-path="url(#pb993ebc233)" style="fill: none; stroke: #000000"/>
    <path d="M 315.139813 167.472678 
L 304.805331 161.84284 
" clip-path="url(#pb993ebc233)" style="fill: none; stroke: #000000"/>
    <path d="M 304.805331 161.84284 
L 300.641462 155.306323 
" clip-path="url(#pb993ebc233)" style="fill: none; stroke: #000000"/>
    <path d="M 304.805331 161.84284 
L 296.35501 161.794765 
" clip-path="url(#pb993ebc233)" style="fill: none; stroke: #000000"/>
    <path d="M 350.875043 179.815647 
L 358.02474 186.516589 
" clip-path="url(#pb993ebc233)" style="fill: none; stroke: #000000"/>
    <path d="M 350.875043 179.815647 
L 361.650898 179.563981 
" clip-path="url(#pb993ebc233)" style="fill: none; stroke: #000000"/>
    <path d="M 358.02474 186.516589 
L 366.484005 190.646046 
" clip-path="url(#pb993ebc233)" style="fill: none; stroke: #000000"/>
    <path d="M 366.484005 190.646046 
L 374.884972 190.050446 
" clip-path="url(#pb993ebc233)" style="fill: none; stroke: #000000"/>
    <path d="M 374.884972 190.050446 
L 370.783259 183.125285 
" clip-path="url(#pb993ebc233)" style="fill: none; stroke: #000000"/>
    <path d="M 374.884972 190.050446 
L 381.790417 194.325677 
" clip-path="url(#pb993ebc233)" style="fill: none; stroke: #000000"/>
    <path d="M 370.783259 183.125285 
L 361.650898 179.563981 
" clip-path="url(#pb993ebc233)" style="fill: none; stroke: #000000"/>
   </g>
   <g id="PathCollection_4">
    <defs>
     <path id="C2_0_2c3c866883" d="M 0 1.118034 
C 0.296506 1.118034 0.580908 1.000231 0.790569 0.790569 
C 1.000231 0.580908 1.118034 0.296506 1.118034 -0 
C 1.118034 -0.296506 1.000231 -0.580908 0.790569 -0.790569 
C 0.580908 -1.000231 0.296506 -1.118034 0 -1.118034 
C -0.296506 -1.118034 -0.580908 -1.000231 -0.790569 -0.790569 
C -1.000231 -0.580908 -1.118034 -0.296506 -1.118034 0 
C -1.118034 0.296506 -1.000231 0.580908 -0.790569 0.790569 
C -0.580908 1.000231 -0.296506 1.118034 0 1.118034 
z
"/>
    </defs>
    <g clip-path="url(#pb993ebc233)">
     <use xlink:href="#C2_0_2c3c866883" x="320.814432" y="179.874356" style="fill: #57db94; stroke: #57db94"/>
    </g>
    <g clip-path="url(#pb993ebc233)">
     <use xlink:href="#C2_0_2c3c866883" x="329.582664" y="179.633118" style="fill: #57db94; stroke: #57db94"/>
    </g>
    <g clip-path="url(#pb993ebc233)">
     <use xlink:href="#C2_0_2c3c866883" x="337.667707" y="176.008324" style="fill: #57db94; stroke: #57db94"/>
    </g>
    <g clip-path="url(#pb993ebc233)">
     <use xlink:href="#C2_0_2c3c866883" x="326.897049" y="170.308841" style="fill: #57db94; stroke: #57db94"/>
    </g>
    <g clip-path="url(#pb993ebc233)">
     <use xlink:href="#C2_0_2c3c866883" x="315.139813" y="167.472678" style="fill: #57db94; stroke: #57db94"/>
    </g>
    <g clip-path="url(#pb993ebc233)">
     <use xlink:href="#C2_0_2c3c866883" x="314.999425" y="174.778973" style="fill: #57db94; stroke: #57db94"/>
    </g>
    <g clip-path="url(#pb993ebc233)">
     <use xlink:href="#C2_0_2c3c866883" x="304.805331" y="161.84284" style="fill: #57db94; stroke: #57db94"/>
    </g>
    <g clip-path="url(#pb993ebc233)">
     <use xlink:href="#C2_0_2c3c866883" x="300.641462" y="155.306323" style="fill: #57db94; stroke: #57db94"/>
    </g>
    <g clip-path="url(#pb993ebc233)">
     <use xlink:href="#C2_0_2c3c866883" x="296.35501" y="161.794765" style="fill: #57db94; stroke: #57db94"/>
    </g>
    <g clip-path="url(#pb993ebc233)">
     <use xlink:href="#C2_0_2c3c866883" x="350.875043" y="179.815647" style="fill: #57db94; stroke: #57db94"/>
    </g>
    <g clip-path="url(#pb993ebc233)">
     <use xlink:href="#C2_0_2c3c866883" x="358.02474" y="186.516589" style="fill: #57db94; stroke: #57db94"/>
    </g>
    <g clip-path="url(#pb993ebc233)">
     <use xlink:href="#C2_0_2c3c866883" x="366.484005" y="190.646046" style="fill: #57db94; stroke: #57db94"/>
    </g>
    <g clip-path="url(#pb993ebc233)">
     <use xlink:href="#C2_0_2c3c866883" x="374.884972" y="190.050446" style="fill: #57db94; stroke: #57db94"/>
    </g>
    <g clip-path="url(#pb993ebc233)">
     <use xlink:href="#C2_0_2c3c866883" x="370.783259" y="183.125285" style="fill: #57db94; stroke: #57db94"/>
    </g>
    <g clip-path="url(#pb993ebc233)">
     <use xlink:href="#C2_0_2c3c866883" x="361.650898" y="179.563981" style="fill: #57db94; stroke: #57db94"/>
    </g>
    <g clip-path="url(#pb993ebc233)">
     <use xlink:href="#C2_0_2c3c866883" x="381.790417" y="194.325677" style="fill: #57db94; stroke: #57db94"/>
    </g>
   </g>
   <g id="text_12">
    <!-- Graph ID: 65, y-label: -1.0 -->
    <g transform="translate(285.042251 147.355355)scale(0.0833 -0.0833)">
     <use xlink:href="#DejaVuSans-47"/>
     <use xlink:href="#DejaVuSans-72" x="77.490234"/>
     <use xlink:href="#DejaVuSans-61" x="118.603516"/>
     <use xlink:href="#DejaVuSans-70" x="179.882812"/>
     <use xlink:href="#DejaVuSans-68" x="243.359375"/>
     <use xlink:href="#DejaVuSans-20" x="306.738281"/>
     <use xlink:href="#DejaVuSans-49" x="338.525391"/>
     <use xlink:href="#DejaVuSans-44" x="368.017578"/>
     <use xlink:href="#DejaVuSans-3a" x="445.019531"/>
     <use xlink:href="#DejaVuSans-20" x="478.710938"/>
     <use xlink:href="#DejaVuSans-36" x="510.498047"/>
     <use xlink:href="#DejaVuSans-35" x="574.121094"/>
     <use xlink:href="#DejaVuSans-2c" x="637.744141"/>
     <use xlink:href="#DejaVuSans-20" x="669.53125"/>
     <use xlink:href="#DejaVuSans-79" x="701.318359"/>
     <use xlink:href="#DejaVuSans-2d" x="758.748047"/>
     <use xlink:href="#DejaVuSans-6c" x="794.832031"/>
     <use xlink:href="#DejaVuSans-61" x="822.615234"/>
     <use xlink:href="#DejaVuSans-62" x="883.894531"/>
     <use xlink:href="#DejaVuSans-65" x="947.371094"/>
     <use xlink:href="#DejaVuSans-6c" x="1008.894531"/>
     <use xlink:href="#DejaVuSans-3a" x="1036.677734"/>
     <use xlink:href="#DejaVuSans-20" x="1070.369141"/>
     <use xlink:href="#DejaVuSans-2d" x="1102.15625"/>
     <use xlink:href="#DejaVuSans-31" x="1138.240234"/>
     <use xlink:href="#DejaVuSans-2e" x="1201.863281"/>
     <use xlink:href="#DejaVuSans-30" x="1233.650391"/>
    </g>
   </g>
  </g>
  <g id="axes_5">
   <g id="LineCollection_4">
    <path d="M 343.344127 137.520752 
L 352.799151 138.528 
" clip-path="url(#p38e43e3e72)" style="fill: none; stroke: #000000"/>
    <path d="M 343.344127 137.520752 
L 339.803968 130.893362 
" clip-path="url(#p38e43e3e72)" style="fill: none; stroke: #000000"/>
    <path d="M 352.799151 138.528 
L 357.642277 132.630297 
" clip-path="url(#p38e43e3e72)" style="fill: none; stroke: #000000"/>
    <path d="M 357.642277 132.630297 
L 356.992894 125.020559 
" clip-path="url(#p38e43e3e72)" style="fill: none; stroke: #000000"/>
    <path d="M 356.992894 125.020559 
L 341.087375 122.839906 
" clip-path="url(#p38e43e3e72)" style="fill: none; stroke: #000000"/>
    <path d="M 356.992894 125.020559 
L 371.194409 121.425066 
" clip-path="url(#p38e43e3e72)" style="fill: none; stroke: #000000"/>
    <path d="M 341.087375 122.839906 
L 339.803968 130.893362 
" clip-path="url(#p38e43e3e72)" style="fill: none; stroke: #000000"/>
    <path d="M 341.087375 122.839906 
L 328.575661 114.992667 
" clip-path="url(#p38e43e3e72)" style="fill: none; stroke: #000000"/>
    <path d="M 328.575661 114.992667 
L 326.494853 107.567791 
" clip-path="url(#p38e43e3e72)" style="fill: none; stroke: #000000"/>
    <path d="M 328.575661 114.992667 
L 315.582144 110.549954 
" clip-path="url(#p38e43e3e72)" style="fill: none; stroke: #000000"/>
    <path d="M 326.494853 107.567791 
L 321.248407 101.402254 
" clip-path="url(#p38e43e3e72)" style="fill: none; stroke: #000000"/>
    <path d="M 321.248407 101.402254 
L 311.885434 99.508645 
" clip-path="url(#p38e43e3e72)" style="fill: none; stroke: #000000"/>
    <path d="M 311.885434 99.508645 
L 306.191972 104.396059 
" clip-path="url(#p38e43e3e72)" style="fill: none; stroke: #000000"/>
    <path d="M 306.191972 104.396059 
L 315.582144 110.549954 
" clip-path="url(#p38e43e3e72)" style="fill: none; stroke: #000000"/>
    <path d="M 306.191972 104.396059 
L 296.35501 101.489108 
" clip-path="url(#p38e43e3e72)" style="fill: none; stroke: #000000"/>
    <path d="M 371.194409 121.425066 
L 381.790417 122.141316 
" clip-path="url(#p38e43e3e72)" style="fill: none; stroke: #000000"/>
    <path d="M 371.194409 121.425066 
L 377.906744 116.399608 
" clip-path="url(#p38e43e3e72)" style="fill: none; stroke: #000000"/>
   </g>
   <g id="PathCollection_5">
    <defs>
     <path id="C3_0_7514381cb3" d="M 0 1.118034 
C 0.296506 1.118034 0.580908 1.000231 0.790569 0.790569 
C 1.000231 0.580908 1.118034 0.296506 1.118034 -0 
C 1.118034 -0.296506 1.000231 -0.580908 0.790569 -0.790569 
C 0.580908 -1.000231 0.296506 -1.118034 0 -1.118034 
C -0.296506 -1.118034 -0.580908 -1.000231 -0.790569 -0.790569 
C -1.000231 -0.580908 -1.118034 -0.296506 -1.118034 0 
C -1.118034 0.296506 -1.000231 0.580908 -0.790569 0.790569 
C -0.580908 1.000231 -0.296506 1.118034 0 1.118034 
z
"/>
    </defs>
    <g clip-path="url(#p38e43e3e72)">
     <use xlink:href="#C3_0_7514381cb3" x="343.344127" y="137.520752" style="fill: #5784db; stroke: #5784db"/>
    </g>
    <g clip-path="url(#p38e43e3e72)">
     <use xlink:href="#C3_0_7514381cb3" x="352.799151" y="138.528" style="fill: #5784db; stroke: #5784db"/>
    </g>
    <g clip-path="url(#p38e43e3e72)">
     <use xlink:href="#C3_0_7514381cb3" x="357.642277" y="132.630297" style="fill: #5784db; stroke: #5784db"/>
    </g>
    <g clip-path="url(#p38e43e3e72)">
     <use xlink:href="#C3_0_7514381cb3" x="356.992894" y="125.020559" style="fill: #5784db; stroke: #5784db"/>
    </g>
    <g clip-path="url(#p38e43e3e72)">
     <use xlink:href="#C3_0_7514381cb3" x="341.087375" y="122.839906" style="fill: #5784db; stroke: #5784db"/>
    </g>
    <g clip-path="url(#p38e43e3e72)">
     <use xlink:href="#C3_0_7514381cb3" x="339.803968" y="130.893362" style="fill: #5784db; stroke: #5784db"/>
    </g>
    <g clip-path="url(#p38e43e3e72)">
     <use xlink:href="#C3_0_7514381cb3" x="328.575661" y="114.992667" style="fill: #5784db; stroke: #5784db"/>
    </g>
    <g clip-path="url(#p38e43e3e72)">
     <use xlink:href="#C3_0_7514381cb3" x="326.494853" y="107.567791" style="fill: #5784db; stroke: #5784db"/>
    </g>
    <g clip-path="url(#p38e43e3e72)">
     <use xlink:href="#C3_0_7514381cb3" x="321.248407" y="101.402254" style="fill: #5784db; stroke: #5784db"/>
    </g>
    <g clip-path="url(#p38e43e3e72)">
     <use xlink:href="#C3_0_7514381cb3" x="311.885434" y="99.508645" style="fill: #5784db; stroke: #5784db"/>
    </g>
    <g clip-path="url(#p38e43e3e72)">
     <use xlink:href="#C3_0_7514381cb3" x="306.191972" y="104.396059" style="fill: #5784db; stroke: #5784db"/>
    </g>
    <g clip-path="url(#p38e43e3e72)">
     <use xlink:href="#C3_0_7514381cb3" x="315.582144" y="110.549954" style="fill: #5784db; stroke: #5784db"/>
    </g>
    <g clip-path="url(#p38e43e3e72)">
     <use xlink:href="#C3_0_7514381cb3" x="296.35501" y="101.489108" style="fill: #5784db; stroke: #5784db"/>
    </g>
    <g clip-path="url(#p38e43e3e72)">
     <use xlink:href="#C3_0_7514381cb3" x="371.194409" y="121.425066" style="fill: #5784db; stroke: #5784db"/>
    </g>
    <g clip-path="url(#p38e43e3e72)">
     <use xlink:href="#C3_0_7514381cb3" x="381.790417" y="122.141316" style="fill: #5784db; stroke: #5784db"/>
    </g>
    <g clip-path="url(#p38e43e3e72)">
     <use xlink:href="#C3_0_7514381cb3" x="377.906744" y="116.399608" style="fill: #5784db; stroke: #5784db"/>
    </g>
   </g>
   <g id="text_13">
    <!-- Graph ID: 72, y-label: -1.0 -->
    <g transform="translate(285.042251 91.557677)scale(0.0833 -0.0833)">
     <defs>
      <path id="DejaVuSans-37" d="M 525 4666 
L 3525 4666 
L 3525 4397 
L 1831 0 
L 1172 0 
L 2766 4134 
L 525 4134 
L 525 4666 
z
" transform="scale(0.015625)"/>
     </defs>
     <use xlink:href="#DejaVuSans-47"/>
     <use xlink:href="#DejaVuSans-72" x="77.490234"/>
     <use xlink:href="#DejaVuSans-61" x="118.603516"/>
     <use xlink:href="#DejaVuSans-70" x="179.882812"/>
     <use xlink:href="#DejaVuSans-68" x="243.359375"/>
     <use xlink:href="#DejaVuSans-20" x="306.738281"/>
     <use xlink:href="#DejaVuSans-49" x="338.525391"/>
     <use xlink:href="#DejaVuSans-44" x="368.017578"/>
     <use xlink:href="#DejaVuSans-3a" x="445.019531"/>
     <use xlink:href="#DejaVuSans-20" x="478.710938"/>
     <use xlink:href="#DejaVuSans-37" x="510.498047"/>
     <use xlink:href="#DejaVuSans-32" x="574.121094"/>
     <use xlink:href="#DejaVuSans-2c" x="637.744141"/>
     <use xlink:href="#DejaVuSans-20" x="669.53125"/>
     <use xlink:href="#DejaVuSans-79" x="701.318359"/>
     <use xlink:href="#DejaVuSans-2d" x="758.748047"/>
     <use xlink:href="#DejaVuSans-6c" x="794.832031"/>
     <use xlink:href="#DejaVuSans-61" x="822.615234"/>
     <use xlink:href="#DejaVuSans-62" x="883.894531"/>
     <use xlink:href="#DejaVuSans-65" x="947.371094"/>
     <use xlink:href="#DejaVuSans-6c" x="1008.894531"/>
     <use xlink:href="#DejaVuSans-3a" x="1036.677734"/>
     <use xlink:href="#DejaVuSans-20" x="1070.369141"/>
     <use xlink:href="#DejaVuSans-2d" x="1102.15625"/>
     <use xlink:href="#DejaVuSans-31" x="1138.240234"/>
     <use xlink:href="#DejaVuSans-2e" x="1201.863281"/>
     <use xlink:href="#DejaVuSans-30" x="1233.650391"/>
    </g>
   </g>
  </g>
  <g id="axes_6">
   <g id="LineCollection_5">
    <path d="M 376.464225 62.801604 
L 381.790417 55.8101 
" clip-path="url(#p2abc2a9f8e)" style="fill: none; stroke: #000000"/>
    <path d="M 376.464225 62.801604 
L 350.566082 68.277122 
" clip-path="url(#p2abc2a9f8e)" style="fill: none; stroke: #000000"/>
    <path d="M 381.790417 55.8101 
L 362.558708 49.819562 
" clip-path="url(#p2abc2a9f8e)" style="fill: none; stroke: #000000"/>
    <path d="M 362.558708 49.819562 
L 325.79753 53.0875 
" clip-path="url(#p2abc2a9f8e)" style="fill: none; stroke: #000000"/>
    <path d="M 362.558708 49.819562 
L 376.883179 43.710968 
" clip-path="url(#p2abc2a9f8e)" style="fill: none; stroke: #000000"/>
    <path d="M 325.79753 53.0875 
L 330.045159 61.085119 
" clip-path="url(#p2abc2a9f8e)" style="fill: none; stroke: #000000"/>
    <path d="M 325.79753 53.0875 
L 296.35501 49.10291 
" clip-path="url(#p2abc2a9f8e)" style="fill: none; stroke: #000000"/>
    <path d="M 330.045159 61.085119 
L 350.566082 68.277122 
" clip-path="url(#p2abc2a9f8e)" style="fill: none; stroke: #000000"/>
    <path d="M 350.566082 68.277122 
L 350.173414 77.248798 
" clip-path="url(#p2abc2a9f8e)" style="fill: none; stroke: #000000"/>
    <path d="M 350.173414 77.248798 
L 330.832313 82.617555 
" clip-path="url(#p2abc2a9f8e)" style="fill: none; stroke: #000000"/>
    <path d="M 350.173414 77.248798 
L 368.897073 82.730323 
" clip-path="url(#p2abc2a9f8e)" style="fill: none; stroke: #000000"/>
   </g>
   <g id="PathCollection_6">
    <defs>
     <path id="C4_0_fbfdef4595" d="M 0 1.118034 
C 0.296506 1.118034 0.580908 1.000231 0.790569 0.790569 
C 1.000231 0.580908 1.118034 0.296506 1.118034 -0 
C 1.118034 -0.296506 1.000231 -0.580908 0.790569 -0.790569 
C 0.580908 -1.000231 0.296506 -1.118034 0 -1.118034 
C -0.296506 -1.118034 -0.580908 -1.000231 -0.790569 -0.790569 
C -1.000231 -0.580908 -1.118034 -0.296506 -1.118034 0 
C -1.118034 0.296506 -1.000231 0.580908 -0.790569 0.790569 
C -0.580908 1.000231 -0.296506 1.118034 0 1.118034 
z
"/>
    </defs>
    <g clip-path="url(#p2abc2a9f8e)">
     <use xlink:href="#C4_0_fbfdef4595" x="376.464225" y="62.801604" style="fill: #c957db; stroke: #c957db"/>
    </g>
    <g clip-path="url(#p2abc2a9f8e)">
     <use xlink:href="#C4_0_fbfdef4595" x="381.790417" y="55.8101" style="fill: #c957db; stroke: #c957db"/>
    </g>
    <g clip-path="url(#p2abc2a9f8e)">
     <use xlink:href="#C4_0_fbfdef4595" x="362.558708" y="49.819562" style="fill: #c957db; stroke: #c957db"/>
    </g>
    <g clip-path="url(#p2abc2a9f8e)">
     <use xlink:href="#C4_0_fbfdef4595" x="325.79753" y="53.0875" style="fill: #c957db; stroke: #c957db"/>
    </g>
    <g clip-path="url(#p2abc2a9f8e)">
     <use xlink:href="#C4_0_fbfdef4595" x="330.045159" y="61.085119" style="fill: #c957db; stroke: #c957db"/>
    </g>
    <g clip-path="url(#p2abc2a9f8e)">
     <use xlink:href="#C4_0_fbfdef4595" x="350.566082" y="68.277122" style="fill: #c957db; stroke: #c957db"/>
    </g>
    <g clip-path="url(#p2abc2a9f8e)">
     <use xlink:href="#C4_0_fbfdef4595" x="350.173414" y="77.248798" style="fill: #c957db; stroke: #c957db"/>
    </g>
    <g clip-path="url(#p2abc2a9f8e)">
     <use xlink:href="#C4_0_fbfdef4595" x="330.832313" y="82.617555" style="fill: #c957db; stroke: #c957db"/>
    </g>
    <g clip-path="url(#p2abc2a9f8e)">
     <use xlink:href="#C4_0_fbfdef4595" x="368.897073" y="82.730323" style="fill: #c957db; stroke: #c957db"/>
    </g>
    <g clip-path="url(#p2abc2a9f8e)">
     <use xlink:href="#C4_0_fbfdef4595" x="296.35501" y="49.10291" style="fill: #c957db; stroke: #c957db"/>
    </g>
    <g clip-path="url(#p2abc2a9f8e)">
     <use xlink:href="#C4_0_fbfdef4595" x="376.883179" y="43.710968" style="fill: #c957db; stroke: #c957db"/>
    </g>
   </g>
   <g id="text_14">
    <!-- Graph ID: 61, y-label: -1.0 -->
    <g transform="translate(285.042251 35.76)scale(0.0833 -0.0833)">
     <use xlink:href="#DejaVuSans-47"/>
     <use xlink:href="#DejaVuSans-72" x="77.490234"/>
     <use xlink:href="#DejaVuSans-61" x="118.603516"/>
     <use xlink:href="#DejaVuSans-70" x="179.882812"/>
     <use xlink:href="#DejaVuSans-68" x="243.359375"/>
     <use xlink:href="#DejaVuSans-20" x="306.738281"/>
     <use xlink:href="#DejaVuSans-49" x="338.525391"/>
     <use xlink:href="#DejaVuSans-44" x="368.017578"/>
     <use xlink:href="#DejaVuSans-3a" x="445.019531"/>
     <use xlink:href="#DejaVuSans-20" x="478.710938"/>
     <use xlink:href="#DejaVuSans-36" x="510.498047"/>
     <use xlink:href="#DejaVuSans-31" x="574.121094"/>
     <use xlink:href="#DejaVuSans-2c" x="637.744141"/>
     <use xlink:href="#DejaVuSans-20" x="669.53125"/>
     <use xlink:href="#DejaVuSans-79" x="701.318359"/>
     <use xlink:href="#DejaVuSans-2d" x="758.748047"/>
     <use xlink:href="#DejaVuSans-6c" x="794.832031"/>
     <use xlink:href="#DejaVuSans-61" x="822.615234"/>
     <use xlink:href="#DejaVuSans-62" x="883.894531"/>
     <use xlink:href="#DejaVuSans-65" x="947.371094"/>
     <use xlink:href="#DejaVuSans-6c" x="1008.894531"/>
     <use xlink:href="#DejaVuSans-3a" x="1036.677734"/>
     <use xlink:href="#DejaVuSans-20" x="1070.369141"/>
     <use xlink:href="#DejaVuSans-2d" x="1102.15625"/>
     <use xlink:href="#DejaVuSans-31" x="1138.240234"/>
     <use xlink:href="#DejaVuSans-2e" x="1201.863281"/>
     <use xlink:href="#DejaVuSans-30" x="1233.650391"/>
    </g>
   </g>
  </g>
  <g id="text_15">
   <!-- Feature: CB_edge betweenness centrality_mean_repeats_E -->
   <g transform="translate(24.320312 16.318125)scale(0.12 -0.12)">
    <defs>
     <path id="DejaVuSans-46" d="M 628 4666 
L 3309 4666 
L 3309 4134 
L 1259 4134 
L 1259 2759 
L 3109 2759 
L 3109 2228 
L 1259 2228 
L 1259 0 
L 628 0 
L 628 4666 
z
" transform="scale(0.015625)"/>
     <path id="DejaVuSans-74" d="M 1172 4494 
L 1172 3500 
L 2356 3500 
L 2356 3053 
L 1172 3053 
L 1172 1153 
Q 1172 725 1289 603 
Q 1406 481 1766 481 
L 2356 481 
L 2356 0 
L 1766 0 
Q 1100 0 847 248 
Q 594 497 594 1153 
L 594 3053 
L 172 3053 
L 172 3500 
L 594 3500 
L 594 4494 
L 1172 4494 
z
" transform="scale(0.015625)"/>
     <path id="DejaVuSans-75" d="M 544 1381 
L 544 3500 
L 1119 3500 
L 1119 1403 
Q 1119 906 1312 657 
Q 1506 409 1894 409 
Q 2359 409 2629 706 
Q 2900 1003 2900 1516 
L 2900 3500 
L 3475 3500 
L 3475 0 
L 2900 0 
L 2900 538 
Q 2691 219 2414 64 
Q 2138 -91 1772 -91 
Q 1169 -91 856 284 
Q 544 659 544 1381 
z
M 1991 3584 
L 1991 3584 
z
" transform="scale(0.015625)"/>
     <path id="DejaVuSans-43" d="M 4122 4306 
L 4122 3641 
Q 3803 3938 3442 4084 
Q 3081 4231 2675 4231 
Q 1875 4231 1450 3742 
Q 1025 3253 1025 2328 
Q 1025 1406 1450 917 
Q 1875 428 2675 428 
Q 3081 428 3442 575 
Q 3803 722 4122 1019 
L 4122 359 
Q 3791 134 3420 21 
Q 3050 -91 2638 -91 
Q 1578 -91 968 557 
Q 359 1206 359 2328 
Q 359 3453 968 4101 
Q 1578 4750 2638 4750 
Q 3056 4750 3426 4639 
Q 3797 4528 4122 4306 
z
" transform="scale(0.015625)"/>
     <path id="DejaVuSans-42" d="M 1259 2228 
L 1259 519 
L 2272 519 
Q 2781 519 3026 730 
Q 3272 941 3272 1375 
Q 3272 1813 3026 2020 
Q 2781 2228 2272 2228 
L 1259 2228 
z
M 1259 4147 
L 1259 2741 
L 2194 2741 
Q 2656 2741 2882 2914 
Q 3109 3088 3109 3444 
Q 3109 3797 2882 3972 
Q 2656 4147 2194 4147 
L 1259 4147 
z
M 628 4666 
L 2241 4666 
Q 2963 4666 3353 4366 
Q 3744 4066 3744 3513 
Q 3744 3084 3544 2831 
Q 3344 2578 2956 2516 
Q 3422 2416 3680 2098 
Q 3938 1781 3938 1306 
Q 3938 681 3513 340 
Q 3088 0 2303 0 
L 628 0 
L 628 4666 
z
" transform="scale(0.015625)"/>
     <path id="DejaVuSans-5f" d="M 3263 -1063 
L 3263 -1509 
L -63 -1509 
L -63 -1063 
L 3263 -1063 
z
" transform="scale(0.015625)"/>
     <path id="DejaVuSans-64" d="M 2906 2969 
L 2906 4863 
L 3481 4863 
L 3481 0 
L 2906 0 
L 2906 525 
Q 2725 213 2448 61 
Q 2172 -91 1784 -91 
Q 1150 -91 751 415 
Q 353 922 353 1747 
Q 353 2572 751 3078 
Q 1150 3584 1784 3584 
Q 2172 3584 2448 3432 
Q 2725 3281 2906 2969 
z
M 947 1747 
Q 947 1113 1208 752 
Q 1469 391 1925 391 
Q 2381 391 2643 752 
Q 2906 1113 2906 1747 
Q 2906 2381 2643 2742 
Q 2381 3103 1925 3103 
Q 1469 3103 1208 2742 
Q 947 2381 947 1747 
z
" transform="scale(0.015625)"/>
     <path id="DejaVuSans-67" d="M 2906 1791 
Q 2906 2416 2648 2759 
Q 2391 3103 1925 3103 
Q 1463 3103 1205 2759 
Q 947 2416 947 1791 
Q 947 1169 1205 825 
Q 1463 481 1925 481 
Q 2391 481 2648 825 
Q 2906 1169 2906 1791 
z
M 3481 434 
Q 3481 -459 3084 -895 
Q 2688 -1331 1869 -1331 
Q 1566 -1331 1297 -1286 
Q 1028 -1241 775 -1147 
L 775 -588 
Q 1028 -725 1275 -790 
Q 1522 -856 1778 -856 
Q 2344 -856 2625 -561 
Q 2906 -266 2906 331 
L 2906 616 
Q 2728 306 2450 153 
Q 2172 0 1784 0 
Q 1141 0 747 490 
Q 353 981 353 1791 
Q 353 2603 747 3093 
Q 1141 3584 1784 3584 
Q 2172 3584 2450 3431 
Q 2728 3278 2906 2969 
L 2906 3500 
L 3481 3500 
L 3481 434 
z
" transform="scale(0.015625)"/>
     <path id="DejaVuSans-77" d="M 269 3500 
L 844 3500 
L 1563 769 
L 2278 3500 
L 2956 3500 
L 3675 769 
L 4391 3500 
L 4966 3500 
L 4050 0 
L 3372 0 
L 2619 2869 
L 1863 0 
L 1184 0 
L 269 3500 
z
" transform="scale(0.015625)"/>
     <path id="DejaVuSans-6e" d="M 3513 2113 
L 3513 0 
L 2938 0 
L 2938 2094 
Q 2938 2591 2744 2837 
Q 2550 3084 2163 3084 
Q 1697 3084 1428 2787 
Q 1159 2491 1159 1978 
L 1159 0 
L 581 0 
L 581 3500 
L 1159 3500 
L 1159 2956 
Q 1366 3272 1645 3428 
Q 1925 3584 2291 3584 
Q 2894 3584 3203 3211 
Q 3513 2838 3513 2113 
z
" transform="scale(0.015625)"/>
     <path id="DejaVuSans-73" d="M 2834 3397 
L 2834 2853 
Q 2591 2978 2328 3040 
Q 2066 3103 1784 3103 
Q 1356 3103 1142 2972 
Q 928 2841 928 2578 
Q 928 2378 1081 2264 
Q 1234 2150 1697 2047 
L 1894 2003 
Q 2506 1872 2764 1633 
Q 3022 1394 3022 966 
Q 3022 478 2636 193 
Q 2250 -91 1575 -91 
Q 1294 -91 989 -36 
Q 684 19 347 128 
L 347 722 
Q 666 556 975 473 
Q 1284 391 1588 391 
Q 1994 391 2212 530 
Q 2431 669 2431 922 
Q 2431 1156 2273 1281 
Q 2116 1406 1581 1522 
L 1381 1569 
Q 847 1681 609 1914 
Q 372 2147 372 2553 
Q 372 3047 722 3315 
Q 1072 3584 1716 3584 
Q 2034 3584 2315 3537 
Q 2597 3491 2834 3397 
z
" transform="scale(0.015625)"/>
     <path id="DejaVuSans-63" d="M 3122 3366 
L 3122 2828 
Q 2878 2963 2633 3030 
Q 2388 3097 2138 3097 
Q 1578 3097 1268 2742 
Q 959 2388 959 1747 
Q 959 1106 1268 751 
Q 1578 397 2138 397 
Q 2388 397 2633 464 
Q 2878 531 3122 666 
L 3122 134 
Q 2881 22 2623 -34 
Q 2366 -91 2075 -91 
Q 1284 -91 818 406 
Q 353 903 353 1747 
Q 353 2603 823 3093 
Q 1294 3584 2113 3584 
Q 2378 3584 2631 3529 
Q 2884 3475 3122 3366 
z
" transform="scale(0.015625)"/>
     <path id="DejaVuSans-69" d="M 603 3500 
L 1178 3500 
L 1178 0 
L 603 0 
L 603 3500 
z
M 603 4863 
L 1178 4863 
L 1178 4134 
L 603 4134 
L 603 4863 
z
" transform="scale(0.015625)"/>
     <path id="DejaVuSans-6d" d="M 3328 2828 
Q 3544 3216 3844 3400 
Q 4144 3584 4550 3584 
Q 5097 3584 5394 3201 
Q 5691 2819 5691 2113 
L 5691 0 
L 5113 0 
L 5113 2094 
Q 5113 2597 4934 2840 
Q 4756 3084 4391 3084 
Q 3944 3084 3684 2787 
Q 3425 2491 3425 1978 
L 3425 0 
L 2847 0 
L 2847 2094 
Q 2847 2600 2669 2842 
Q 2491 3084 2119 3084 
Q 1678 3084 1418 2786 
Q 1159 2488 1159 1978 
L 1159 0 
L 581 0 
L 581 3500 
L 1159 3500 
L 1159 2956 
Q 1356 3278 1631 3431 
Q 1906 3584 2284 3584 
Q 2666 3584 2933 3390 
Q 3200 3197 3328 2828 
z
" transform="scale(0.015625)"/>
     <path id="DejaVuSans-45" d="M 628 4666 
L 3578 4666 
L 3578 4134 
L 1259 4134 
L 1259 2753 
L 3481 2753 
L 3481 2222 
L 1259 2222 
L 1259 531 
L 3634 531 
L 3634 0 
L 628 0 
L 628 4666 
z
" transform="scale(0.015625)"/>
    </defs>
    <use xlink:href="#DejaVuSans-46"/>
    <use xlink:href="#DejaVuSans-65" x="52.019531"/>
    <use xlink:href="#DejaVuSans-61" x="113.542969"/>
    <use xlink:href="#DejaVuSans-74" x="174.822266"/>
    <use xlink:href="#DejaVuSans-75" x="214.03125"/>
    <use xlink:href="#DejaVuSans-72" x="277.410156"/>
    <use xlink:href="#DejaVuSans-65" x="316.273438"/>
    <use xlink:href="#DejaVuSans-3a" x="377.796875"/>
    <use xlink:href="#DejaVuSans-20" x="411.488281"/>
    <use xlink:href="#DejaVuSans-43" x="443.275391"/>
    <use xlink:href="#DejaVuSans-42" x="513.099609"/>
    <use xlink:href="#DejaVuSans-5f" x="581.703125"/>
    <use xlink:href="#DejaVuSans-65" x="631.703125"/>
    <use xlink:href="#DejaVuSans-64" x="693.226562"/>
    <use xlink:href="#DejaVuSans-67" x="756.703125"/>
    <use xlink:href="#DejaVuSans-65" x="820.179688"/>
    <use xlink:href="#DejaVuSans-20" x="881.703125"/>
    <use xlink:href="#DejaVuSans-62" x="913.490234"/>
    <use xlink:href="#DejaVuSans-65" x="976.966797"/>
    <use xlink:href="#DejaVuSans-74" x="1038.490234"/>
    <use xlink:href="#DejaVuSans-77" x="1077.699219"/>
    <use xlink:href="#DejaVuSans-65" x="1159.486328"/>
    <use xlink:href="#DejaVuSans-65" x="1221.009766"/>
    <use xlink:href="#DejaVuSans-6e" x="1282.533203"/>
    <use xlink:href="#DejaVuSans-6e" x="1345.912109"/>
    <use xlink:href="#DejaVuSans-65" x="1409.291016"/>
    <use xlink:href="#DejaVuSans-73" x="1470.814453"/>
    <use xlink:href="#DejaVuSans-73" x="1522.914062"/>
    <use xlink:href="#DejaVuSans-20" x="1575.013672"/>
    <use xlink:href="#DejaVuSans-63" x="1606.800781"/>
    <use xlink:href="#DejaVuSans-65" x="1661.78125"/>
    <use xlink:href="#DejaVuSans-6e" x="1723.304688"/>
    <use xlink:href="#DejaVuSans-74" x="1786.683594"/>
    <use xlink:href="#DejaVuSans-72" x="1825.892578"/>
    <use xlink:href="#DejaVuSans-61" x="1867.005859"/>
    <use xlink:href="#DejaVuSans-6c" x="1928.285156"/>
    <use xlink:href="#DejaVuSans-69" x="1956.068359"/>
    <use xlink:href="#DejaVuSans-74" x="1983.851562"/>
    <use xlink:href="#DejaVuSans-79" x="2023.060547"/>
    <use xlink:href="#DejaVuSans-5f" x="2082.240234"/>
    <use xlink:href="#DejaVuSans-6d" x="2132.240234"/>
    <use xlink:href="#DejaVuSans-65" x="2229.652344"/>
    <use xlink:href="#DejaVuSans-61" x="2291.175781"/>
    <use xlink:href="#DejaVuSans-6e" x="2352.455078"/>
    <use xlink:href="#DejaVuSans-5f" x="2415.833984"/>
    <use xlink:href="#DejaVuSans-72" x="2465.833984"/>
    <use xlink:href="#DejaVuSans-65" x="2504.697266"/>
    <use xlink:href="#DejaVuSans-70" x="2566.220703"/>
    <use xlink:href="#DejaVuSans-65" x="2629.697266"/>
    <use xlink:href="#DejaVuSans-61" x="2691.220703"/>
    <use xlink:href="#DejaVuSans-74" x="2752.5"/>
    <use xlink:href="#DejaVuSans-73" x="2791.708984"/>
    <use xlink:href="#DejaVuSans-5f" x="2843.808594"/>
    <use xlink:href="#DejaVuSans-45" x="2893.808594"/>
   </g>
  </g>
 </g>
 <defs>
  <clipPath id="pd759f15939">
   <rect x="28.942188" y="41.76" width="225.549474" height="266.112"/>
  </clipPath>
  <clipPath id="pf8616555a6">
   <rect x="292.08324" y="264.95071" width="93.978947" height="42.92129"/>
  </clipPath>
  <clipPath id="p293d81fd71">
   <rect x="292.08324" y="209.153032" width="93.978947" height="42.92129"/>
  </clipPath>
  <clipPath id="pb993ebc233">
   <rect x="292.08324" y="153.355355" width="93.978947" height="42.92129"/>
  </clipPath>
  <clipPath id="p38e43e3e72">
   <rect x="292.08324" y="97.557677" width="93.978947" height="42.92129"/>
  </clipPath>
  <clipPath id="p2abc2a9f8e">
   <rect x="292.08324" y="41.76" width="93.978947" height="42.92129"/>
  </clipPath>
 </defs>
</svg>
